<?xml version="1.0" standalone="no"?>
<!DOCTYPE svg PUBLIC "-//W3C//DTD SVG 1.1//EN" "http://www.w3.org/Graphics/SVG/1.1/DTD/svg11.dtd" >
<svg>
<metadata>
Created by FontForge 20090914 at Mon Dec 14 09:35:01 2015
 By www-data
Copyright (c) 2014 by Style-7. All rights reserved. http://www.styleseven.com
</metadata>
<defs>
<font id="ArialNarrow7" horiz-adv-x="1000" >
  <font-face 
    font-family="Arial Narrow 7"
    font-weight="400"
    font-stretch="normal"
    units-per-em="2048"
    panose-1="2 0 5 0 0 0 0 0 0 0"
    ascent="1638"
    descent="-410"
    x-height="1000"
    cap-height="1400"
    bbox="-100 -500 1800 1900"
    underline-thickness="200"
    underline-position="-200"
    unicode-range="U+0020-U+2122"
  />
<missing-glyph horiz-adv-x="200" 
 />
    <glyph glyph-name=".notdef" horiz-adv-x="200" 
 />
    <glyph glyph-name="uni0020" unicode=" " horiz-adv-x="600" 
 />
    <glyph glyph-name="exclam" unicode="!" horiz-adv-x="500" 
d="M47 500v900h200v-900h-200zM300 150c0 -41.333 -14.667 -76.666 -44 -105.999s-64.666 -44 -105.999 -44s-76.666 14.667 -105.999 44s-44 64.666 -44 105.999s14.667 76.666 44 105.999s64.666 44 105.999 44s76.666 -14.667 105.999 -44s44 -64.666 44 -105.999z" />
    <glyph glyph-name="quotedbl" unicode="&#x22;" horiz-adv-x="800" 
d="M200 1400v-400h-200v400h200zM600 1400v-400h-200v400h200z" />
    <glyph glyph-name="numbersign" unicode="#" 
d="M700 1400v-300h100v-200h-100v-400h100v-200h-100v-300h-200v300h-200v-300h-200v300h-100v200h100v400h-100v200h100v300h200v-300h200v300h200zM300 500h200v400h-200v-400z" />
    <glyph glyph-name="dollar" unicode="$" horiz-adv-x="1001" 
d="M447 1600l-0.000976562 -203.001c90.667 -9.33301 169.334 -47.333 236.001 -114c78 -78 117 -172.333 117 -283h-200c0 55.333 -19.667 102.333 -59 141c-27.333 27.333 -58.666 45.333 -93.999 54v-398c90.667 -9.33301 169.667 -47.333 237 -114
c78 -78 117 -172.333 117 -283h-1c0 -110.667 -39 -205 -117 -283c-66.667 -66.667 -145.334 -105 -236.001 -115v-202h-100v203c-88 10.667 -164.667 48.667 -230 114c-78 78 -117 172.333 -117 283h200c0 -55.333 19.333 -102.666 58 -141.999
c26 -26 55.667 -43.333 89 -52v397c-88 10.667 -164.333 48.667 -229 114c-78 78 -117 172.333 -117 283h-1c0 110.667 39 205 117 283c65.333 65.333 142 103.333 230 114v203h100zM540.999 257.999c39.333 39.333 59.001 86.667 59.001 142h1
c0 55.333 -19.667 102.333 -59 141c-27.333 28 -59 46 -95 54v-390c35.333 8 66.666 25.667 93.999 53zM258 1141c-38.667 -38.667 -58 -85.6689 -58 -141.002h1c0 -55.333 19.333 -102.666 58 -141.999c26 -25.333 55.333 -42.666 88 -51.999v387
c-33.333 -8.66699 -63 -26 -89 -52z" />
    <glyph glyph-name="percent" unicode="%" 
d="M800 1400l-600 -1400h-200l600 1400h200zM300 1250c0 -41.333 -14.667 -76.666 -44 -105.999s-64.666 -44 -105.999 -44s-76.666 14.667 -105.999 44s-44 64.666 -44 105.999s14.667 76.666 44 105.999s64.666 44 105.999 44s76.666 -14.667 105.999 -44
s44 -64.666 44 -105.999zM500 150c0 41.333 14.667 76.666 44 105.999s64.666 44 105.999 44s76.666 -14.667 105.999 -44s44 -64.666 44 -105.999s-14.667 -76.666 -44 -105.999s-64.666 -44 -105.999 -44s-76.666 14.667 -105.999 44s-44 64.666 -44 105.999z" />
    <glyph glyph-name="ampersand" unicode="&#x26;" horiz-adv-x="1100" 
d="M900 800l0.000976562 -200h-500c-55.333 0 -102.5 -19.5 -141.5 -58.5s-58.5 -86.167 -58.5 -141.5s19.5 -102.5 58.5 -141.5s86.167 -58.5 141.5 -58.5s102.5 19.5 141.5 58.5s58.5 86.167 58.5 141.5h200c0 -74 -17.667 -140.667 -53 -200h153v-200h-492h-8
c-110.667 0 -205 39 -283 117s-117 172.333 -117 283s39 205 117 283c13.333 13.333 27.666 26 42.999 38c-75.333 77.333 -113 170.333 -113 279c0 110.667 39 205 117 283c56.667 56.667 136 95 238 115c103.333 -20.667 183.333 -59 240 -115
c78 -78 117 -172.333 117 -283c0 -74 -17.667 -140.667 -53 -200h194zM247.001 1000c0 -55.333 19.333 -102.666 58 -141.999c28.667 -28 61.334 -46 98.001 -54c36.667 8 69 26 97 54c39.333 39.333 59 86.666 59 141.999s-19.667 102.333 -59 141
c-28 28.667 -60.333 46.667 -97 54c-36.667 -7.33301 -69.334 -25.333 -98.001 -54c-38.667 -38.667 -58 -85.667 -58 -141z" />
    <glyph glyph-name="quotesingle" unicode="'" horiz-adv-x="400" 
d="M200 1400v-400h-200v400h200z" />
    <glyph glyph-name="parenleft" unicode="(" horiz-adv-x="700" 
d="M500 -100v-200h-100c-110.667 0 -205 39 -283 117s-117 172.333 -117 283v1199c0 110.667 39 205 117 283s172.333 117 283 117h100v-200h-100c-55.333 0 -102.5 -19.5 -141.5 -58.5s-58.5 -86.167 -58.5 -141.5v-1199c0 -55.333 19.5 -102.5 58.5 -141.5
s86.167 -58.5 141.5 -58.5h100z" />
    <glyph glyph-name="parenright" unicode=")" horiz-adv-x="700" 
d="M100 -100c55.333 0 102.5 19.5 141.5 58.5s58.5 86.167 58.5 141.5v1199c0 55.333 -19.5 102.5 -58.5 141.5s-86.167 58.5 -141.5 58.5h-100v200h100c110.667 0 205 -39 283 -117s117 -172.333 117 -283v-1199c0 -110.667 -39 -205 -117 -283s-172.333 -117 -283 -117
h-100v200h100z" />
    <glyph glyph-name="asterisk" unicode="*" 
d="M687 404l-174 -100l-113 195l-113 -195l-174 100l113 196h-226v200h226l-113 196l174 100l113 -196l113 196l174 -100l-113 -196h226v-200h-227z" />
    <glyph glyph-name="plus" unicode="+" 
d="M500 800h300v-200h-300v-300h-200v300h-300v200h300v300h200v-300z" />
    <glyph glyph-name="comma" unicode="," horiz-adv-x="661" 
d="M236 473c7.33301 -5.33301 13.999 -10.9971 19.999 -16.9971c4 -4 7.66699 -8 11 -12c129.333 -138.667 107 -353.334 -67 -644.001c66.667 200 66.667 333.333 0 400l-6 6c-14 -4 -28.667 -6 -44 -6c-41.333 0 -76.666 14.667 -105.999 44s-44 64.666 -44 105.999
s14.667 76.666 44 105.999s64.666 44 105.999 44c16.667 0 32.334 -2.33301 47.001 -7l3 7c12.667 -8.66699 24.667 -17.667 36 -27z" />
    <glyph glyph-name="hyphen" unicode="-" 
d="M800 800v-200h-800v200h800z" />
    <glyph glyph-name="period" unicode="." horiz-adv-x="500" 
d="M150 0c-41.333 0 -76.666 14.667 -105.999 44s-44 64.666 -44 105.999s14.667 76.666 44 105.999s64.666 44 105.999 44s76.666 -14.667 105.999 -44s44 -64.666 44 -105.999s-14.667 -76.666 -44 -105.999s-64.666 -44 -105.999 -44z" />
    <glyph glyph-name="slash" unicode="/" 
d="M800 1400l-600 -1400h-200l600 1400h200z" />
    <glyph glyph-name="zero" unicode="0" 
d="M800 400c0 -110.667 -39 -205 -117 -283s-172.333 -117 -283 -117s-205 39 -283 117s-117 172.333 -117 283v600c0 110.667 39 205 117 283s172.333 117 283 117s205 -39 283 -117s117 -172.333 117 -283v-600zM600 1000c0 14 -1.33301 27.333 -4 40l-337 -783
c38.667 -38 85.667 -57 141 -57s102.5 19.5 141.5 58.5s58.5 86.167 58.5 141.5v600zM400 1200c-55.333 0 -102.499 -19.5 -141.499 -58.5s-58.5 -86.167 -58.5 -141.5v-600c0 -14 1 -27.667 3 -41l337 783c-38.667 38.667 -85.334 58 -140.001 58z" />
    <glyph glyph-name="one" unicode="1" horiz-adv-x="553" 
d="M353 1400v-1400h-200v1100h-3c-41.333 0 -76.666 14.667 -105.999 44s-44 64.666 -44 105.999s14.667 76.666 44 105.999s64.666 44 105.999 44h203z" />
    <glyph glyph-name="two" unicode="2" 
d="M400 1200c-55.333 0 -102.5 -19.5 -141.5 -58.5s-58.5 -86.167 -58.5 -141.5h-200c0 110.667 39 205 117 283s172.333 117 283 117s205 -39 283 -117s117 -172.333 117 -283s-39 -205 -117 -283s-172.333 -117 -283 -117c-55.333 0 -102.5 -19.5 -141.5 -58.5
s-58.5 -86.167 -58.5 -141.5v-200h600v-200h-800v400c0 110.667 39 205 117 283s172.333 117 283 117c55.333 0 102.5 19.5 141.5 58.5s58.5 86.167 58.5 141.5s-19.5 102.5 -58.5 141.5s-86.167 58.5 -141.5 58.5z" />
    <glyph glyph-name="three" unicode="3" 
d="M400 1c-110.667 0 -205 39 -283 117s-117 172.333 -117 283h200c0 -55.333 19.5 -102.5 58.5 -141.5s86.167 -58.5 141.5 -58.5v-1c55.333 0 102.5 19.5 141.5 58.5s58.5 86.167 58.5 141.5s-19.5 102.5 -58.5 141.5s-86.167 58.5 -141.5 58.5h-100v200h100
c55.333 0 102.5 19.5 141.5 58.5s58.5 86.167 58.5 141.5s-19.5 102.5 -58.5 141.5s-86.167 58.5 -141.5 58.5s-102.5 -19.5 -141.5 -58.5s-58.5 -86.167 -58.5 -141.5h-200c0 110.667 39 205 117 283s172.333 117 283 117s205 -39 283 -117s117 -172.333 117 -283
s-39 -205 -117 -283c-6 -6 -12 -11.667 -18 -17c6 -5.33301 12 -11 18 -17c78 -78 117 -172.333 117 -283s-39 -205 -117 -283s-172.333 -117 -283 -117v1z" />
    <glyph glyph-name="four" unicode="4" 
d="M600 550v102.001c-59.333 -34.667 -126 -52 -200 -52c-110.667 0 -205 39 -283 117s-117 172.333 -117 283v400h200v-400c0 -55.333 19.5 -102.5 58.5 -141.5s86.167 -58.5 141.5 -58.5s102.333 19.333 141 58c37.333 37.333 57 81.666 59 132.999v409h200v-1400h-200
v550z" />
    <glyph glyph-name="five" unicode="5" 
d="M600 600c0 55.333 -19.5 102.5 -58.5 141.5s-86.167 58.5 -141.5 58.5h-400v600h800v-200h-600v-200h200c110.667 0 205 -39 283 -117s117 -172.333 117 -283v-200h-1c-0.666992 -110.667 -39.667 -204.667 -117 -282c-78 -78 -172.333 -117 -283 -117v1
c-110.667 0 -205 39 -283 117s-117 172.333 -117 283h200c0 -55.333 19.5 -102.5 58.5 -141.5s86.167 -58.5 141.5 -58.5v-1c55.333 0 102.5 19.5 141.5 58.5s58.5 86.167 58.5 141.5h1v199z" />
    <glyph glyph-name="six" unicode="6" 
d="M599 1000c0 55.333 -19.5 102.501 -58.5 141.501s-86.167 58.5 -141.5 58.5c-55.333 -0.666992 -102.333 -20.334 -141 -59.001s-58 -85.667 -58 -141v-200h200c110.667 0 205 -39 283 -117s117 -172.333 117 -283s-39 -205 -117 -283s-172.333 -117 -283 -117
s-205 39 -283 117s-117 172.333 -117 283v600c0 110.667 39 205 117 283c77.333 77.333 171.333 116.333 282 117c110.667 0 205 -39 283 -117s117 -172.333 117 -283h-200zM200 400.001c0 -55.333 19.5 -102.5 58.5 -141.5s86.167 -58.5 141.5 -58.5s102.5 19.5 141.5 58.5
s58.5 86.167 58.5 141.5s-19.5 102.5 -58.5 141.5s-86.167 58.5 -141.5 58.5h-200v-200z" />
    <glyph glyph-name="seven" unicode="7" 
d="M800 1400l-400 -1400h-200l314 1200h-514v200h800z" />
    <glyph glyph-name="eight" unicode="8" 
d="M683 683c78 -78 117.001 -172.332 117.001 -282.999s-39 -205 -117 -283s-172.333 -117 -283 -117s-205 39 -283 117s-117 172.333 -117 283s39 205 117 283c13.333 13.333 27.666 26 42.999 38c-75.333 77.333 -113 170.333 -113 279c0 110.667 39 205 117 283
c56.667 56.667 136 95 238 115c103.333 -20.667 183.333 -59 240 -115c78 -78 117 -172.333 117 -283c0 -110 -38.667 -204 -116 -282c14 -10.667 27.333 -22.334 40 -35.001zM200.001 400.001c0 -55.333 19.5 -102.5 58.5 -141.5s86.167 -58.5 141.5 -58.5
s102.5 19.5 141.5 58.5s58.5 86.167 58.5 141.5s-19.5 102.5 -58.5 141.5s-86.167 58.5 -141.5 58.5s-102.5 -19.5 -141.5 -58.5s-58.5 -86.167 -58.5 -141.5zM247.001 1000c0 -55.333 19.333 -102.666 58 -141.999c28.667 -28 61.334 -46 98.001 -54c36.667 8 69 26 97 54
c39.333 39.333 59 86.666 59 141.999s-19.667 102.333 -59 141c-28 28.667 -60.333 46.667 -97 54c-36.667 -7.33301 -69.334 -25.333 -98.001 -54c-38.667 -38.667 -58 -85.667 -58 -141z" />
    <glyph glyph-name="nine" unicode="9" 
d="M201 400c0 -55.333 19.5 -102.501 58.5 -141.501s86.167 -58.5 141.5 -58.5c55.333 0.666992 102.333 20.334 141 59.001s58 85.667 58 141v200h-200c-110.667 0 -205 39 -283 117s-117 172.333 -117 283s39 205 117 283s172.333 117 283 117s205 -39 283 -117
s117 -172.333 117 -283v-600c0 -110.667 -39 -205 -117 -283c-77.333 -77.333 -171.333 -116.333 -282 -117c-110.667 0 -205 39 -283 117s-117 172.333 -117 283h200zM600 999.999c0 55.333 -19.5 102.5 -58.5 141.5s-86.167 58.5 -141.5 58.5s-102.5 -19.5 -141.5 -58.5
s-58.5 -86.167 -58.5 -141.5s19.5 -102.5 58.5 -141.5s86.167 -58.5 141.5 -58.5h200v200z" />
    <glyph glyph-name="colon" unicode=":" horiz-adv-x="500" 
d="M150 200c-41.333 0 -76.666 14.667 -105.999 44s-44 64.666 -44 105.999s14.667 76.666 44 105.999s64.666 44 105.999 44s76.666 -14.667 105.999 -44s44 -64.666 44 -105.999s-14.667 -76.666 -44 -105.999s-64.666 -44 -105.999 -44zM300 1050
c0 -41.333 -14.667 -76.666 -44 -105.999s-64.666 -44 -105.999 -44s-76.666 14.667 -105.999 44s-44 64.666 -44 105.999s14.667 76.666 44 105.999s64.666 44 105.999 44s76.666 -14.667 105.999 -44s44 -64.666 44 -105.999z" />
    <glyph glyph-name="semicolon" unicode=";" horiz-adv-x="661" 
d="M236 473c7.33301 -5.33301 13.999 -10.9971 19.999 -16.9971c4 -4 7.66699 -8 11 -12c129.333 -138.667 107 -353.334 -67 -644.001c66.667 200 66.667 333.333 0 400l-6 6c-14 -4 -28.667 -6 -44 -6c-41.333 0 -76.666 14.667 -105.999 44s-44 64.666 -44 105.999
s14.667 76.666 44 105.999s64.666 44 105.999 44c16.667 0 32.334 -2.33301 47.001 -7l3 7c12.667 -8.66699 24.667 -17.667 36 -27zM149.999 900.003c-41.333 0 -76.666 14.667 -105.999 44s-44 64.666 -44 105.999s14.667 76.666 44 105.999s64.666 44 105.999 44
s76.666 -14.667 105.999 -44s44 -64.666 44 -105.999s-14.667 -76.666 -44 -105.999s-64.666 -44 -105.999 -44z" />
    <glyph glyph-name="less" unicode="&#x3c;" 
d="M800 300l-800 400l800 400v-200l-400 -200l400 -200v-200z" />
    <glyph glyph-name="equal" unicode="=" 
d="M800 600v-200h-800v200h800zM0 800v200h800v-200h-800z" />
    <glyph glyph-name="greater" unicode="&#x3e;" 
d="M0 500l400 200l-400 200v200l800 -400l-800 -400v200z" />
    <glyph glyph-name="question" unicode="?" 
d="M550 150c0 -41.333 -14.667 -76.666 -44 -105.999s-64.666 -44 -105.999 -44s-76.666 14.667 -105.999 44s-44 64.666 -44 105.999s14.667 76.666 44 105.999s64.666 44 105.999 44s76.666 -14.667 105.999 -44s44 -64.666 44 -105.999zM400 1200
c-55.333 0 -102.5 -19.5 -141.5 -58.5s-58.5 -86.167 -58.5 -141.5h-200c0 110.667 39 205 117 283s172.333 117 283 117s205 -39 283 -117s117 -172.333 117 -283s-39 -205 -117 -283c-53.333 -53.333 -114.333 -88.333 -183 -105v-112h-200v300h100
c55.333 0 102.5 19.5 141.5 58.5s58.5 86.167 58.5 141.5s-19.5 102.5 -58.5 141.5s-86.167 58.5 -141.5 58.5z" />
    <glyph glyph-name="at" unicode="@" horiz-adv-x="1800" 
d="M1600 0h-600v52c-59.333 -34.667 -126 -52 -200 -52v1c-110.667 0 -205 39 -283 117s-117 172 -117 282v200c0 110.667 39 205 117 283s172.333 117 283 117v-1c74 0 140.667 -17.333 200 -52v53h200v-800h200v800c0 55.333 -19.5 102.5 -58.5 141.5
s-86.167 58.5 -141.5 58.5h-800c-55.333 0 -102.5 -19.5 -141.5 -58.5s-58.5 -86.167 -58.5 -141.5v-1000c0 -55.333 19.5 -102.5 58.5 -141.5s86.167 -58.5 141.5 -58.5h1000v-200h-1000c-110.667 0 -205 39 -283 117s-117 172.333 -117 283v1000c0 110.667 39 205 117 283
s172.333 117 283 117h800c110.667 0 205 -39 283 -117s117 -172.333 117 -283v-1000zM1000 398v202.999c-0.666992 54.667 -20 101.334 -58 140.001c-39.333 38.667 -86.666 58 -141.999 58v1c-55.333 0 -102.5 -19.5 -141.5 -58.5s-58.5 -86.167 -58.5 -141.5v-199
c0 -55.333 19.5 -102.5 58.5 -141.5s86.167 -58.5 141.5 -58.5v-1c55.333 0 102.666 19.667 141.999 59c38 38 57.333 84.333 58 139z" />
    <glyph glyph-name="A" unicode="A" 
d="M600 600h-400v-599h-200v999c0 110.667 39 205 117 283s172.333 117 283 117s205 -39 283 -117s117 -172.333 117 -283v-1000h-200v600zM600 1000c0 55.333 -19.5 102.5 -58.5 141.5s-86.167 58.5 -141.5 58.5s-102.5 -19.5 -141.5 -58.5s-58.5 -86.167 -58.5 -141.5
v-200h400v200z" />
    <glyph glyph-name="B" unicode="B" 
d="M0 1400l300 0.000976562c110.667 0 205 -39 283 -117s117 -172.333 117 -283c0 -98.667 -31 -184.334 -93 -257.001c26.667 -16 52 -36 76 -60c78 -78 117 -172.333 117 -283s-39 -205 -117 -283s-172.333 -117 -283 -117h-400v1400zM400 600.001h-92h-8h-100v-400h200
c55.333 0 102.5 19.5 141.5 58.5s58.5 86.167 58.5 141.5s-19.5 102.5 -58.5 141.5s-86.167 58.5 -141.5 58.5zM300 1200h-100v-400h100c55.333 0 102.5 19.5 141.5 58.5s58.5 86.167 58.5 141.5s-19.5 102.5 -58.5 141.5s-86.167 58.5 -141.5 58.5z" />
    <glyph glyph-name="C" unicode="C" 
d="M400 200c55.333 0 102.5 19.5 141.5 58.5s58.5 86.167 58.5 141.5h200c0 -110.667 -39 -205 -117 -283s-172.333 -117 -283 -117s-205 39 -283 117s-117 172.333 -117 283v600c0 110.667 39 205 117 283s172.333 117 283 117s205 -39 283 -117s117 -172.333 117 -283
h-200c0 55.333 -19.5 102.5 -58.5 141.5s-86.167 58.5 -141.5 58.5s-102.5 -19.5 -141.5 -58.5s-58.5 -86.167 -58.5 -141.5v-600c0 -55.333 19.5 -102.5 58.5 -141.5s86.167 -58.5 141.5 -58.5z" />
    <glyph glyph-name="D" unicode="D" 
d="M800 400c0 -110.667 -39 -205 -117 -283s-172.333 -117 -283 -117h-400v1400h400c110.667 0 205 -39 283 -117s117 -172.333 117 -283v-600zM400 200c55.333 0 102.5 19.5 141.5 58.5s58.5 86.167 58.5 141.5v600c0 55.333 -19.5 102.5 -58.5 141.5
s-86.167 58.5 -141.5 58.5h-200v-1000h200z" />
    <glyph glyph-name="E" unicode="E" 
d="M800 1400v-200h-600v-400h399v-200h-399v-400h600v-200h-800v1400h800z" />
    <glyph glyph-name="F" unicode="F" 
d="M800 1400v-200h-600v-400h400v-200h-400v-600h-200v1400h800z" />
    <glyph glyph-name="G" unicode="G" 
d="M800 600v-200c0 -110.667 -39 -205 -117 -283s-172.333 -117 -283 -117s-205 39 -283 117s-117 172.333 -117 283v600c0 110.667 39 205 117 283s172.333 117 283 117s205 -39 283 -117s117 -172.333 117 -283h-200c0 55.333 -19.5 102.5 -58.5 141.5
s-86.167 58.5 -141.5 58.5s-102.5 -19.5 -141.5 -58.5s-58.5 -86.167 -58.5 -141.5v-600c0 -55.333 19.5 -102.5 58.5 -141.5s86.167 -58.5 141.5 -58.5s102.5 19.5 141.5 58.5s58.5 86.167 58.5 141.5h-200v200h400z" />
    <glyph glyph-name="H" unicode="H" 
d="M800 1400v-1400h-200v600h-400v-600h-200v1400h200v-600h400v600h200z" />
    <glyph glyph-name="I" unicode="I" horiz-adv-x="400" 
d="M200 1400v-1400h-200v1400h200z" />
    <glyph glyph-name="J" unicode="J" 
d="M600 399l-0.000976562 1001h200v-1000c0 -110.667 -39 -205 -117 -283s-172.333 -117 -283 -117s-205 39 -283 117s-117 172.333 -117 283h200c0 -55.333 19.5 -102.5 58.5 -141.5s86.167 -58.5 141.5 -58.5s102.333 19.333 141 58s58.334 85.667 59.001 141z" />
    <glyph glyph-name="K" unicode="K" 
d="M200 700l300 701h200l-300 -701l400 -700h-200l-400 700v-700h-200v1400h200v-700z" />
    <glyph glyph-name="L" unicode="L" 
d="M800 200v-200h-800v1400h200v-1200h600z" />
    <glyph glyph-name="M" unicode="M" 
d="M800 1400v-1400h-200v933l-200 -466l-200 466v-933h-200v1400h200l200 -467l200 467h200z" />
    <glyph glyph-name="N" unicode="N" 
d="M200 933v-933h-200v1400h200l400 -933v933h200v-1400h-200z" />
    <glyph glyph-name="O" unicode="O" 
d="M800 400c0 -110.667 -39 -205 -117 -283s-172.333 -117 -283 -117s-205 39 -283 117s-117 172.333 -117 283v600c0 110.667 39 205 117 283s172.333 117 283 117s205 -39 283 -117s117 -172.333 117 -283v-600zM600 1000c0 55.333 -19.5 102.5 -58.5 141.5
s-86.167 58.5 -141.5 58.5s-102.5 -19.5 -141.5 -58.5s-58.5 -86.167 -58.5 -141.5v-600c0 -55.333 19.5 -102.5 58.5 -141.5s86.167 -58.5 141.5 -58.5s102.5 19.5 141.5 58.5s58.5 86.167 58.5 141.5v600z" />
    <glyph glyph-name="P" unicode="P" 
d="M200 1400h200c110.667 0 205 -39 283 -117s117 -172.333 117 -283s-39 -205 -117 -283s-172.333 -117 -283 -117h-200v-600h-200v1400h200zM600 1000c0 55.333 -19.5 102.5 -58.5 141.5s-86.167 58.5 -141.5 58.5h-200v-400h200c55.333 0 102.5 19.5 141.5 58.5
s58.5 86.167 58.5 141.5z" />
    <glyph glyph-name="Q" unicode="Q" 
d="M800 400c0 -78 -19.333 -148 -58 -210c17.333 -8 31.333 -20 42 -36s16 -34 16 -54c0 -28 -9.66699 -51.667 -29 -71s-43 -29 -71 -29c-20 -0 -38.167 5.33301 -54.5 16s-28.5 24.667 -36.5 42c-61.333 -38.667 -131 -58 -209 -58c-110.667 0 -205 39 -283 117
s-117 172.333 -117 283v600c0 110.667 39 205 117 283s172.333 117 283 117s205 -39 283 -117s117 -172.333 117 -283v-600zM600 1000c0 55.333 -19.5 102.5 -58.5 141.5s-86.167 58.5 -141.5 58.5s-102.5 -19.5 -141.5 -58.5s-58.5 -86.167 -58.5 -141.5v-600
c0 -55.333 19.5 -102.5 58.5 -141.5s86.167 -58.5 141.5 -58.5s102.5 19.5 141.5 58.5s58.5 86.167 58.5 141.5v600z" />
    <glyph glyph-name="R" unicode="R" 
d="M200 1400h200c110.667 0 205 -39 283 -117s117 -172.333 117 -283s-39 -205 -117 -283c-36.667 -36.667 -77 -64.667 -121 -84l238 -633h-200l-225 600h-175v-600h-200v1400h200zM600 1000c0 55.333 -19.5 102.5 -58.5 141.5s-86.167 58.5 -141.5 58.5h-200v-400h200
c55.333 0 102.5 19.5 141.5 58.5s58.5 86.167 58.5 141.5z" />
    <glyph glyph-name="S" unicode="S" horiz-adv-x="1001" 
d="M400 0c-110.667 0 -205 39 -283 117s-117 172.333 -117 283h200c0 -55.333 19.5 -102.5 58.5 -141.5s86.167 -58.5 141.5 -58.5s102.5 19.5 141.5 58.5s58.5 86.167 58.5 141.5h1c0 55.333 -19.5 102.5 -58.5 141.5s-86.167 58.5 -141.5 58.5
c-110.667 0 -205 39 -283 117s-117 172.333 -117 283h-1c0 110.667 39 205 117 283s172.333 117 283 117s205 -39 283 -117s117 -172.333 117 -283h-200c0 55.333 -19.5 102.5 -58.5 141.5s-86.167 58.5 -141.5 58.5s-102.5 -19.5 -141.5 -58.5s-58.5 -86.167 -58.5 -141.5
h1c0 -55.333 19.5 -102.5 58.5 -141.5s86.167 -58.5 141.5 -58.5c110.667 0 205 -39 283 -117s117 -172.333 117 -283h-1c0 -110.667 -39 -205 -117 -283s-172.333 -117 -283 -117z" />
    <glyph glyph-name="T" unicode="T" 
d="M800 1400v-200h-300v-1200h-200v1200h-300v200h800z" />
    <glyph glyph-name="U" unicode="U" horiz-adv-x="1001" 
d="M1 400l-1 1000h200l1 -1000h-1c0 -55.333 19.5 -102.5 58.5 -141.5s86.167 -58.5 141.5 -58.5s102.5 19.5 141.5 58.5s58.5 86.167 58.5 141.5h1l-1 1000h200l1 -1000h-1c0 -110.667 -39 -205 -117 -283s-172.333 -117 -283 -117s-205 39 -283 117s-117 172.333 -117 283
h1z" />
    <glyph glyph-name="V" unicode="V" 
d="M200 1400l200 -934l200 934h200l-300 -1400h-200l-300 1400h200z" />
    <glyph glyph-name="W" unicode="W" horiz-adv-x="1599" 
d="M200 1400l200 -934l200 934h200l199 -931l200 931h200l-300 -1398l1 -2h-201v2l-199 931l-200 -933h-200l-300 1400h200z" />
    <glyph glyph-name="X" unicode="X" 
d="M200 1400l200 -467l200 467h200l-300 -700l300 -700h-200l-200 466l-200 -466h-200l300 700l-300 700h200z" />
    <glyph glyph-name="Y" unicode="Y" 
d="M300 700l-300 700h200l200 -467l200 467h200l-300 -700v-700h-200v700z" />
    <glyph glyph-name="Z" unicode="Z" 
d="M800 200v-200h-800l514 1200h-514v200h800l-515 -1200h515z" />
    <glyph glyph-name="bracketleft" unicode="[" horiz-adv-x="600" 
d="M400 -100v-200h-400v200v1800h400v-200h-200v-1600h200z" />
    <glyph glyph-name="backslash" unicode="\" 
d="M200 1400l600 -1400h-200l-600 1400h200z" />
    <glyph glyph-name="bracketright" unicode="]" horiz-adv-x="600" 
d="M400 1700v-2000h-400v200h200v1600h-200v200h400z" />
    <glyph glyph-name="asciicircum" unicode="^" 
d="M0 600l400 800l400 -800h-200l-200 400l-200 -400h-200z" />
    <glyph glyph-name="underscore" unicode="_" 
d="M800 200v-200h-800v200h800z" />
    <glyph glyph-name="grave" unicode="`" horiz-adv-x="600" 
d="M200 1400l200 -400h-200l-200 400h200z" />
    <glyph glyph-name="a" unicode="a" 
d="M600 398v202.999c-0.666992 54.667 -20 101.334 -58 140.001c-39.333 38.667 -86.666 58 -141.999 58v1c-55.333 0 -102.5 -19.5 -141.5 -58.5s-58.5 -86.167 -58.5 -141.5v-199c0 -55.333 19.5 -102.5 58.5 -141.5s86.167 -58.5 141.5 -58.5v-1
c55.333 0 102.666 19.667 141.999 59c38 38 57.333 84.333 58 139zM800 -0.000976562h-200v52c-59.333 -34.667 -126 -52 -200 -52v1c-110.667 0 -205 39 -283 117s-117 172 -117 282v200c0 110.667 39 205 117 283s172.333 117 283 117v-1c74 0 140.667 -17.333 200 -52v53
h200v-1000z" />
    <glyph glyph-name="b" unicode="b" 
d="M200 1400v-400h200c110.667 0 205 -39 283 -117s117 -172.333 117 -283v-200c-0.666992 -110.667 -39.667 -204.667 -117 -282c-78 -78 -172.333 -117 -283 -117v-1h-400v1400h200zM600 600c0 55.333 -19.5 102.5 -58.5 141.5s-86.167 58.5 -141.5 58.5h-200v-600h200v1
c55.333 0 102.5 19.5 141.5 58.5s58.5 86.167 58.5 141.5v199z" />
    <glyph glyph-name="c" unicode="c" 
d="M0 600c0 110.667 39 205 117 283s172.333 117 283 117s205 -39 283 -117s117 -172.333 117 -283h-200c0 55.333 -19.5 102.5 -58.5 141.5s-86.167 58.5 -141.5 58.5s-102.5 -19.5 -141.5 -58.5s-58.5 -86.167 -58.5 -141.5v-199c0 -55.333 19.5 -102.5 58.5 -141.5
s86.167 -58.5 141.5 -58.5v-1c55.333 0 102.5 19.5 141.5 58.5s58.5 86.167 58.5 141.5h200c0 -110.667 -39 -205 -117 -283s-172.333 -117 -283 -117v1c-110.667 0 -205 39 -283 117s-117 172 -117 282v200v0z" />
    <glyph glyph-name="d" unicode="d" 
d="M0 600c0 110.667 39 205 117 283s172.333 117 283 117h200v400h200v-1400h-400v1c-110.667 0 -205 39 -283 117s-117 172.333 -117 283v199zM600 200v600h-200c-55.333 0 -102.5 -19.5 -141.5 -58.5s-58.5 -86.167 -58.5 -141.5v-199c0 -55.333 19.5 -102.5 58.5 -141.5
s86.167 -58.5 141.5 -58.5v-1h200z" />
    <glyph glyph-name="e" unicode="e" 
d="M400 200l300 0.000976562v-200h-300v1c-110.667 0 -205 39 -283 117s-117 172 -117 282v200c0 110.667 39 205 117 283s172.333 117 283 117s205 -39 283 -117s117 -172.333 117 -283v-200h-600c0 -54.667 19.667 -101.334 59 -140.001
c38.667 -39.333 85.667 -59 141 -59v-1zM200 600.001h400c0 55.333 -19.5 102.5 -58.5 141.5s-86.167 58.5 -141.5 58.5s-102.5 -19.5 -141.5 -58.5s-58.5 -86.167 -58.5 -141.5z" />
    <glyph glyph-name="f" unicode="f" horiz-adv-x="800" 
d="M100 1000c0 110.667 39 205 117 283s172.333 117 283 117h100v-200h-100c-55.333 0 -102.5 -19.5 -141.5 -58.5s-58.5 -86.167 -58.5 -141.5h200v-200h-200v-800h-200v800h-100v200h100z" />
    <glyph glyph-name="g" unicode="g" horiz-adv-x="1001" 
d="M0 599c0 110.667 39 205 117 283s172.333 117 283 117v1c74 0 140.667 -17.667 200 -53v53h200v-400h1v-200h-1v-400c0 -110.667 -39 -205 -117 -283s-172.333 -117 -283 -117h-300v200h300c55.333 0 102.5 19.5 141.5 58.5s58.5 86.167 58.5 141.5v53
c-59.333 -34.667 -126 -52 -200 -52v-1c-110.667 0 -205 39 -283 117s-117 172.333 -117 283h1v199h-1zM201 600v-199.999h-1c0 -55.333 19.5 -102.5 58.5 -141.5s86.167 -58.5 141.5 -58.5v1c55.333 0 102.333 19.333 141 58c37.333 37.333 57 81.666 59 132.999v216
c-2 52 -21.667 96.333 -59 133c-38.667 39.333 -85.667 59 -141 59v-1c-55.333 0 -102.5 -19.5 -141.5 -58.5s-58.5 -85.833 -58.5 -140.5h1z" />
    <glyph glyph-name="h" unicode="h" 
d="M800 599v-599h-200v599c0 56 -19.5 103.5 -58.5 142.5s-86.167 58.5 -141.5 58.5s-102.5 -19.5 -141.5 -58.5s-58.5 -86.167 -58.5 -141.5v-600h-200v1400h200v-453c59.333 35.333 126 53 200 53c110.667 0 205 -39 283 -117s117 -172.667 117 -284z" />
    <glyph glyph-name="i" unicode="i" horiz-adv-x="400" 
d="M200 1000v-1000h-200v1000h200zM200 1400v-200h-200v200h200z" />
    <glyph glyph-name="j" unicode="j" horiz-adv-x="600" 
d="M400 1400v-200h-200v200h200zM400 1000v-1000h-200v1000h200zM400 0c0 -110.667 -39 -205 -117 -283s-172.333 -117 -283 -117v200c55.333 0 102.5 19.5 141.5 58.5s58.5 86.167 58.5 141.5h200z" />
    <glyph glyph-name="k" unicode="k" 
d="M200 500l300 500h200l-300 -500l400 -500h-200l-400 500v-500h-200v1400h200v-900z" />
    <glyph glyph-name="l" unicode="l" horiz-adv-x="800" 
d="M600 200v-200h-600v200h200v1000h-200v200h400v-1200h200z" />
    <glyph glyph-name="m" unicode="m" horiz-adv-x="1600" 
d="M800 599l-0.00195312 -599.002h-200v600h1c-6 60.667 -25.667 107.334 -59 140.001c-38.667 39.333 -86 59.333 -142 60c-55.333 0 -102.666 -19.667 -141.999 -59c-36.667 -36.667 -56 -81 -58 -133v-608h-200v1000h200v-53c59.333 35.333 126 53 200 53
c111.333 -0.666992 206 -40 284 -118c5.33301 -5.33301 10.333 -10.666 15 -15.999c5.33301 6 11 12 17 18c78 78 172.333 117 283 117c111.333 -0.666992 206 -40 284 -118s117 -172.333 117 -283v-600h-200v600c0 55.333 -19.5 102.5 -58.5 141.5
s-86.5 58.833 -142.5 59.5c-55.333 0 -102.666 -19.667 -141.999 -59c-33.333 -33.333 -52.333 -81 -57 -143z" />
    <glyph glyph-name="n" unicode="n" 
d="M800 600v-599h-200v599c0 55.333 -19.5 102.5 -58.5 141.5s-86.167 58.5 -141.5 58.5s-102.5 -19.5 -141.5 -58.5s-58.5 -86.167 -58.5 -141.5v-600h-200v1000h200v-52c59.333 34.667 126 52 200 52c110.667 0 205 -39 283 -117s117 -172.333 117 -283z" />
    <glyph glyph-name="o" unicode="o" 
d="M400 800c-55.333 0 -102.5 -19.5 -141.5 -58.5s-58.5 -86.167 -58.5 -141.5v-199c0 -55.333 19.5 -102.5 58.5 -141.5s86.167 -58.5 141.5 -58.5v-1c55.333 0 102.5 19.5 141.5 58.5s58.5 86.167 58.5 141.5v199c0 55.333 -19.5 102.5 -58.5 141.5
s-86.167 58.5 -141.5 58.5v1zM400 1c-110.667 0 -205 39 -283 117s-117 172 -117 282v200c0 110.667 39 205 117 283s172.333 117 283 117v-1c110.667 0 205 -39 283 -117s117 -172.333 117 -283v-200c-0.666992 -110.667 -39.667 -204.667 -117 -282
c-78 -78 -172.333 -117 -283 -117v1z" />
    <glyph glyph-name="p" unicode="p" 
d="M0 1000h200v-53c59.333 35.333 126 53 200 53v-1c110.667 0 205 -39 283 -117s117 -172.333 117 -283v-200c-0.666992 -110.667 -39.667 -204.667 -117 -282c-78 -78 -172.333 -117 -283 -117v1c-74 0 -140.667 17.333 -200 52v-453h-200v1400zM400 800
c-55.333 0 -102.5 -19.5 -141.5 -58.5s-58.5 -86.167 -58.5 -141.5v-199c0 -55.333 19.5 -102.5 58.5 -141.5s86.167 -58.5 141.5 -58.5v-1c55.333 0 102.5 19.5 141.5 58.5s58.5 86.167 58.5 141.5v199c0 55.333 -19.5 102.5 -58.5 141.5s-86.167 58.5 -141.5 58.5v1z" />
    <glyph glyph-name="q" unicode="q" horiz-adv-x="1001" 
d="M0 599c0 110.667 39 205 117 283s172.333 117 283 117v1c74 0 141 -17.667 201 -53v53h200v-1400h-200v454c-60 -35.333 -127 -53 -201 -53v-1c-110.667 0 -205 39 -283 117s-117 172.333 -117 283h1v199h-1zM600 600c0 55.333 -19.5 102.5 -58.5 141.5
s-86.167 58.5 -141.5 58.5v-1c-55.333 0 -102.5 -19.5 -141.5 -58.5s-58.5 -85.833 -58.5 -140.5h1v-200h-1c0 -55.333 19.5 -102.5 58.5 -141.5s86.167 -58.5 141.5 -58.5v1c55.333 0 102.5 19.5 141.5 58.5s58.5 86.167 58.5 141.5h1v199h-1z" />
    <glyph glyph-name="r" unicode="r" horiz-adv-x="700" 
d="M200 1000v-53c59.333 35.333 126 53 200 53h100v-200h-100c-55.333 0 -102.5 -19.5 -141.5 -58.5s-58.5 -86.167 -58.5 -141.5v-600h-200v1000h200z" />
    <glyph glyph-name="s" unicode="s" 
d="M800 1000v-200h-400c-55.333 0 -102.5 -19.5 -141.5 -58.5s-58.5 -86.167 -58.5 -141.5h600v-200c0 -110.667 -39 -205 -117 -283s-172.333 -117 -283 -117h-400v200h400c55.333 0 102.5 19.5 141.5 58.5s58.5 86.167 58.5 141.5h-600v200c0 110.667 39 205 117 283
s172.333 117 283 117h400z" />
    <glyph glyph-name="t" unicode="t" horiz-adv-x="800" 
d="M600 200v-200h-100c-110.667 0 -205 39 -283 117s-117 172.333 -117 283v400h-100v200h100v400h200v-400h200v-200h-200v-400c0 -55.333 19.5 -102.5 58.5 -141.5s86.167 -58.5 141.5 -58.5h100z" />
    <glyph glyph-name="u" unicode="u" horiz-adv-x="1001" 
d="M1 401v598.001h200v-599h-1c0 -54.667 19.667 -101.334 59 -140.001c38.667 -39.333 85.667 -59 141 -59v-1c55.333 0 102.5 19.5 141.5 58.5s58.5 86.167 58.5 141.5h1v600h200v-1000h-200v53c-59.333 -35.333 -126.333 -53 -201 -53v1c-110.667 0 -205 39 -283 117
s-117 172.333 -117 283h1z" />
    <glyph glyph-name="v" unicode="v" 
d="M200 1000l200 -667l200 667h200l-300 -1000h-200l-300 1000h200z" />
    <glyph glyph-name="w" unicode="w" horiz-adv-x="1600" 
d="M1000 201c55.333 0 102.331 19.334 140.998 58.001s58.334 85.667 59.001 141v600h200v-600c-0.666992 -110.667 -39.667 -204.667 -117 -282c-78 -78 -172.333 -117 -283 -117v1c-110.667 0 -205 39 -283 117c-6 5.33301 -11.333 11 -16 17c-6 -6.66699 -12 -13 -18 -19
c-78 -78 -172.333 -117 -283 -117v1c-110.667 0 -205 39 -283 117s-117 172.333 -117 283h1v598h200v-599h-1c0 -54.667 19.667 -101.334 59 -140.001c38.667 -39.333 85.667 -59 141 -59v-1c55.333 0 102.333 19.333 141 58c38 38 57.667 83 59 135v9h1v598h200v-599h-1v-1
v-7c2.66699 -51.333 22.334 -95.333 59.001 -132c38.667 -39.333 85.667 -59 141 -59v-1z" />
    <glyph glyph-name="x" unicode="x" 
d="M238 1000l162 -288l162 288h238l-282 -498l282 -502h-233l-167 294l-167 -294h-233l282 502l-282 498h238z" />
    <glyph glyph-name="y" unicode="y" horiz-adv-x="1001" 
d="M400 -200c56 0 103.5 19.5 142.5 58.5s58.5 86.167 58.5 141.5h-1v53c-59.333 -34.667 -125.666 -52 -198.999 -52v-1c-110.667 0 -205 39 -283 117s-117 172.333 -117 283l-1 600h200l1 -600c0 -55.333 19.5 -102.5 58.5 -141.5s86.167 -58.5 141.5 -58.5v1
c55.333 0 102.666 19.667 141.999 59c33.333 33.333 52.333 73.333 57 120v620h200v-400h1v-200c0 -10 -0.333008 -19.667 -1 -29v-371h1c0 -110.667 -39 -205 -117 -283s-172.667 -117 -284 -117h-300v200h300z" />
    <glyph glyph-name="z" unicode="z" 
d="M800 200v-200h-800l449 800h-449v200h800l-454 -800h454z" />
    <glyph glyph-name="braceleft" unicode="{" horiz-adv-x="900" 
d="M117 417c-78 78 -117 172.333 -117 283s39 205 117 283c26 26 53.667 47.667 83 65v252c0 110.667 39 205 117 283s172.333 117 283 117h100v-200h-100c-55.333 0 -102.5 -19.5 -141.5 -58.5s-58.5 -86.167 -58.5 -141.5v-400c-55.333 0 -102.5 -19.5 -141.5 -58.5
s-58.5 -86.167 -58.5 -141.5s19.5 -102.5 58.5 -141.5s86.167 -58.5 141.5 -58.5v-400c0 -55.333 19.5 -102.5 58.5 -141.5s86.167 -58.5 141.5 -58.5h100v-200h-100c-110.667 0 -205 39 -283 117s-117 172.333 -117 283v252c-29.333 17.333 -57 39 -83 65z" />
    <glyph glyph-name="bar" unicode="|" horiz-adv-x="400" 
d="M200 1500v-1600h-200v1600h200z" />
    <glyph glyph-name="braceright" unicode="}" horiz-adv-x="900" 
d="M500 352v-252c0 -110.667 -39 -205 -117 -283s-172.333 -117 -283 -117h-100v200h100c55.333 0 102.5 19.5 141.5 58.5s58.5 86.167 58.5 141.5v400c55.333 0 102.5 19.5 141.5 58.5s58.5 86.167 58.5 141.5s-19.5 102.5 -58.5 141.5s-86.167 58.5 -141.5 58.5v400
c0 55.333 -19.5 102.5 -58.5 141.5s-86.167 58.5 -141.5 58.5h-100v200h100c110.667 0 205 -39 283 -117s117 -172.333 117 -283v-252c29.333 -17.333 57 -39 83 -65c78 -78 117 -172.333 117 -283s-39 -205 -117 -283c-26 -26 -53.667 -47.667 -83 -65z" />
    <glyph glyph-name="asciitilde" unicode="~" horiz-adv-x="1600" 
d="M1400 700h-200c0 55.333 -19.5 102.5 -58.5 141.5s-86.167 58.5 -141.5 58.5v1c-55.333 0 -102.5 -19.5 -141.5 -58.5s-58.5 -86.167 -58.5 -141.5c0 -110.667 -39 -205 -117 -283s-172.333 -117 -283 -117v-1c-110.667 0 -205 39 -283 117s-117 172.333 -117 283h200
c0 -55.333 19.5 -102.5 58.5 -141.5s86.167 -58.5 141.5 -58.5v1c55.333 0 102.5 19.5 141.5 58.5s58.5 86.167 58.5 141.5c0 110.667 39 205 117 283s172.333 117 283 117v-1c110.667 0 205 -39 283 -117s117 -172.333 117 -283z" />
    <glyph glyph-name="exclamdown" unicode="&#xa1;" horiz-adv-x="500" 
d="M247 900v-900h-200v900h200zM150 1100c-41.333 0 -76.666 14.667 -105.999 44s-44 64.666 -44 105.999s14.667 76.666 44 105.999s64.666 44 105.999 44s76.666 -14.667 105.999 -44s44 -64.666 44 -105.999s-14.667 -76.666 -44 -105.999s-64.666 -44 -105.999 -44z" />
    <glyph glyph-name="cent" unicode="&#xa2;" 
d="M600 1100l-34 -135.001c42.667 -19.333 81.667 -46.666 117 -81.999c78 -78 117 -172.333 117 -283h-200c0 55.333 -19.667 102.333 -59 141c-8 8.66699 -16.333 16 -25 22l-140 -561c8 -0.666992 16 -1 24 -1v-1c55.333 0 102.5 19.5 141.5 58.5s58.5 86.167 58.5 141.5
h200c0 -110.667 -39 -205 -117 -283s-172.333 -117 -283 -117v1c-25.333 0 -49.666 2 -72.999 6l-27 -107h-100l34 135c-42.667 19.333 -81.667 47 -117 83c-78 78 -117 172 -117 282v200c0 110.667 39 205 117 283s172.333 117 283 117c25.333 0 49.666 -2 72.999 -6
l27 106h100zM258 258.999c8.66699 -8 17.333 -15.334 26 -22.001l140 561c-8 1.33301 -16 2 -24 2c-55.333 0 -102.5 -19.5 -141.5 -58.5s-58.5 -86.167 -58.5 -141.5v-199c0 -55.333 19.333 -102.666 58 -141.999z" />
    <glyph glyph-name="sterling" unicode="&#xa3;" horiz-adv-x="800" 
d="M100 1000c0 110.667 39 205 117 283s172.333 117 283 117h100v-200h-100c-55.333 0 -102.5 -19.5 -141.5 -58.5s-58.5 -86.167 -58.5 -141.5h200v-200h-200v-601h299v-200l-599 1v200h100v600h-100v200h100z" />
    <glyph glyph-name="currency" unicode="&#xa4;" horiz-adv-x="1248" 
d="M524 924c-55.333 0 -102.333 -19.333 -141 -58c-39.333 -39.333 -59 -86.666 -59 -141.999c0 -54.667 19.667 -101.334 59 -140.001c38.667 -39.333 85.667 -59 141 -59v-1c55.333 0 102.666 19.333 141.999 58c38.667 38.667 58 85.667 58 141s-19.333 102.333 -58 141
c-39.333 39.333 -86.666 59 -141.999 59v1zM179 928l-179 179l141 141l179 -179c60 36.667 128 55 204 55v-1c75.333 0 143.333 -18 204 -54l179 179l141 -141l-179 -179c36.667 -60.667 55 -128.667 55 -204v-1c0 -75.333 -18.333 -143 -55 -203l179 -179l-141 -141
l-179 179c-60 -36.667 -128 -55 -204 -55v1c-75.333 0 -143 18 -203 54l-179 -179l-142 141l179 179c-36.667 60.667 -55 128.667 -55 204v1c0 75.333 18.333 143 55 203z" />
    <glyph glyph-name="yen" unicode="&#xa5;" 
d="M800 800v-100h-300v-100h200v-100h-200v-500h-200v500h-200v100h200v100h-300v100h257l-257 600h200l200 -467l200 467h200l-257 -600h257z" />
    <glyph glyph-name="brokenbar" unicode="&#xa6;" horiz-adv-x="400" 
d="M200 1400v-600h-200v600h200zM200 600v-600h-200v600h200z" />
    <glyph glyph-name="section" unicode="&#xa7;" horiz-adv-x="1001" 
d="M400 -300c-110.667 0 -205 39 -283 117s-117 172.333 -117 283h200c0 -55.333 19.5 -102.5 58.5 -141.5s86.167 -58.5 141.5 -58.5s102.5 19.5 141.5 58.5s58.5 86.167 58.5 141.5h1c0 55.333 -19.667 102.333 -59 141c-36.667 37.333 -81 57 -133 59h-1h-7h-1h-8
c-107.333 1.33301 -199 40.333 -275 117c-78 78 -117 172.333 -117 283s39 205 117 283c6 6 12 11.667 18 17c-6 5.33301 -11.667 11 -17 17c-78 78 -117 172.333 -117 283h-1c0 110.667 39 205 117 283s172.333 117 283 117s205 -39 283 -117s117 -172.333 117 -283h-200
c0 55.333 -19.5 102.5 -58.5 141.5s-86.167 58.5 -141.5 58.5s-102.5 -19.5 -141.5 -58.5s-58.5 -86.167 -58.5 -141.5h1c0 -55.333 19.5 -102.5 58.5 -141.5s86.167 -58.5 141.5 -58.5c110.667 0 205 -39 283 -117s117 -172.333 117 -283h-1c0 -110.667 -39 -205 -117 -283
c-6 -6 -12 -11.667 -18 -17c6.66699 -5.33301 13 -11 19 -17c78 -78 117 -172.333 117 -283h-1c0 -110.667 -39 -205 -117 -283s-172.333 -117 -283 -117zM400 500c55.333 0 102.501 19.499 141.501 58.499s58.5 86.167 58.5 141.5s-19.5 102.5 -58.5 141.5
s-86.167 58.5 -141.5 58.5s-102.5 -19.5 -141.5 -58.5s-58.5 -86.167 -58.5 -141.5h1c0 -55.333 19.333 -102.666 58 -141.999c37.333 -36.667 81.666 -56 132.999 -58h8z" />
    <glyph glyph-name="dieresis" unicode="&#xa8;" 
d="M300 1250c0 -41.333 -14.667 -76.666 -44 -105.999s-64.666 -44 -105.999 -44s-76.666 14.667 -105.999 44s-44 64.666 -44 105.999s14.667 76.666 44 105.999s64.666 44 105.999 44s76.666 -14.667 105.999 -44s44 -64.666 44 -105.999zM800 1250
c0 -41.333 -14.667 -76.666 -44 -105.999s-64.666 -44 -105.999 -44s-76.666 14.667 -105.999 44s-44 64.666 -44 105.999s14.667 76.666 44 105.999s64.666 44 105.999 44s76.666 -14.667 105.999 -44s44 -64.666 44 -105.999z" />
    <glyph glyph-name="copyright" unicode="&#xa9;" horiz-adv-x="1800" 
d="M1600 1000v-1000c0 -110.667 -39 -205 -117 -283s-172.333 -117 -283 -117h-800c-110.667 0 -205 39 -283 117s-117 172.333 -117 283v1000c0 110.667 39 205 117 283s172.333 117 283 117h800c110.667 0 205 -39 283 -117s117 -172.333 117 -283zM200 1000v-1000
c0 -55.333 19.5 -102.5 58.5 -141.5s86.167 -58.5 141.5 -58.5h800c55.333 0 102.5 19.5 141.5 58.5s58.5 86.167 58.5 141.5v1000c0 55.333 -19.5 102.5 -58.5 141.5s-86.167 58.5 -141.5 58.5h-800c-55.333 0 -102.5 -19.5 -141.5 -58.5s-58.5 -86.167 -58.5 -141.5z
M1200 400c0 -110.667 -38.999 -205 -116.999 -283s-172.333 -117 -283 -117v1c-110.667 0 -205 39 -283 117s-117 172.333 -117 283v199c0 110.667 39 205 117 283s172.333 117 283 117v-200c-55.333 0 -102.5 -19.5 -141.5 -58.5s-58.5 -86.167 -58.5 -141.5v-200
c0 -55.333 19.333 -102.333 58 -141c39.333 -38.667 86.666 -58 141.999 -58v-1c55.333 0 102.5 19.5 141.5 58.5s58.5 86.167 58.5 141.5h200zM1001 599c0 55.333 -19.5 102.5 -58.5 141.5s-86.167 58.5 -141.5 58.5v200c110.667 0 205 -39 283 -117s117 -172.333 117 -283
h-200z" />
    <glyph glyph-name="ordfeminine" unicode="&#xaa;" 
d="M400 500v1c55.333 0 102.666 19.667 141.999 59c38.667 38.667 58 85.334 58 140.001c0 55.333 -19.333 102.666 -58 141.999c-39.333 38.667 -86.666 58 -141.999 58v-1c-55.333 0 -102.666 -19.333 -141.999 -58c-38.667 -39.333 -58 -86.333 -58 -141
c0 -55.333 19.333 -102.333 58 -141c39.333 -39.333 86.666 -59 141.999 -59zM600 353c-59.333 -34.667 -126.001 -52 -200.001 -52v-1c-110.667 0 -205 39 -283 117s-117 172 -117 282v1c0 110.667 39 204.667 117 282c78 78 172.333 117 283 117v1
c71.333 0 136 -16.333 194 -49c-8.66699 34 -26 64.333 -52 91c-39.333 38.667 -86.666 58 -141.999 58h-300v200h300c110.667 0 205 -39 283 -117s117 -172.333 117 -283v-700h-200v53z" />
    <glyph glyph-name="guillemotleft" unicode="&#xab;" horiz-adv-x="1500" 
d="M800 100l-800 600l800 600v-200l-500 -400l500 -400v-200zM1300 100l-800 600l800 600v-200l-500 -400l500 -400v-200z" />
    <glyph glyph-name="logicalnot" unicode="&#xac;" 
d="M800 1400v-400h-200v200h-600v200h800z" />
    <glyph glyph-name="uni00AD" unicode="&#xad;" horiz-adv-x="800" 
d="M600 800v-200h-600v200h600z" />
    <glyph glyph-name="registered" unicode="&#xae;" horiz-adv-x="1800" 
d="M1600 1000v-1000c0 -110.667 -39 -205 -117 -283s-172.333 -117 -283 -117h-800c-110.667 0 -205 39 -283 117s-117 172.333 -117 283v1000c0 110.667 39 205 117 283s172.333 117 283 117h800c110.667 0 205 -39 283 -117s117 -172.333 117 -283zM200 1000v-1000
c0 -55.333 19.5 -102.5 58.5 -141.5s86.167 -58.5 141.5 -58.5h800c55.333 0 102.5 19.5 141.5 58.5s58.5 86.167 58.5 141.5v1000c0 55.333 -19.5 102.5 -58.5 141.5s-86.167 58.5 -141.5 58.5h-800c-55.333 0 -102.5 -19.5 -141.5 -58.5s-58.5 -86.167 -58.5 -141.5z
M1000 0l-136.999 203.998c-20.667 -2.66699 -41.667 -4 -63 -4c-74 0 -140.667 17.333 -200 52v-252h-200v1000h200v-53c59.333 35.333 126 53 200 53v-200c-55.333 0 -102.5 -19.5 -141.5 -58.5s-58.5 -86.167 -58.5 -141.5v-9c2 -51.333 21.333 -95.666 58 -132.999
c39.333 -38.667 86.666 -58 141.999 -58s102.5 19.5 141.5 58.5s58.5 86.167 58.5 141.5h1c-0.666992 54.667 -20.334 101.334 -59.001 140.001c-38.667 39.333 -85.667 59 -141 59v200c110.667 0 205 -39 283 -117s117 -172.333 117 -283h-1
c-0.666992 -110.667 -39.667 -204.667 -117 -282c-19.333 -19.333 -39.666 -36.333 -60.999 -51l178 -266h-200z" />
    <glyph glyph-name="macron" unicode="&#xaf;" 
d="M800 1400v-200h-800v200h800z" />
    <glyph glyph-name="degree" unicode="&#xb0;" 
d="M400 1399v1c110.667 0 205 -39 283 -117s117 -172 117 -282v-1c0 -110 -39 -204 -117 -282s-172.333 -117 -283 -117v-1c-110.667 0 -205 39 -283 117c-77.333 77.333 -116.333 171.333 -117 282v1c0.666992 110 39.667 204 117 282c78 78 172.333 117 283 117zM400 800
v1c55.333 0 102.666 19.667 141.999 59c38.667 38.667 58 85.334 58 140.001c0 55.333 -19.333 102.666 -58 141.999c-39.333 38.667 -86.666 58 -141.999 58v-1c-55.333 0 -102.333 -19.667 -141 -59c-38.667 -38.667 -58.334 -85.667 -59.001 -141
c0.666992 -55.333 20.334 -102.333 59.001 -141s85.667 -58 141 -58z" />
    <glyph glyph-name="plusminus" unicode="&#xb1;" 
d="M500 300h-200v300h-300v200h300v300h200v-300h300v-200h-300v-300zM800 200v-200h-800v200h800z" />
    <glyph glyph-name="uni00B2" unicode="&#xb2;" horiz-adv-x="600" 
d="M200 1300c-27.333 0 -50.833 -9.66699 -70.5 -29s-29.5 -43 -29.5 -71h-100c0 55.333 19.5 102.5 58.5 141.5s86.167 58.5 141.5 58.5s102.5 -19.5 141.5 -58.5s58.5 -86.167 58.5 -141.5s-19.5 -102.5 -58.5 -141.5s-86.167 -58.5 -141.5 -58.5
c-27.333 0 -50.833 -9.66699 -70.5 -29s-29.5 -43 -29.5 -71v-100h300v-100h-400v200c0 55.333 19.5 102.5 58.5 141.5s86.167 58.5 141.5 58.5c28 0 51.667 9.83301 71 29.5s29 43.167 29 70.5c0 28 -9.66699 51.667 -29 71s-43 29 -71 29z" />
    <glyph glyph-name="uni00B3" unicode="&#xb3;" horiz-adv-x="600" 
d="M200 701c-55.333 0 -102.5 19.5 -141.5 58.5s-58.5 86.167 -58.5 141.5h100c0 -28 9.83301 -51.667 29.5 -71s43.167 -29 70.5 -29v-1c28 0 51.667 9.83301 71 29.5s29 43.167 29 70.5c0 28 -9.66699 51.667 -29 71s-43 29 -71 29h-50v100h50
c28 0 51.667 9.83301 71 29.5s29 43.167 29 70.5c0 28 -9.66699 51.667 -29 71s-43 29 -71 29c-27.333 0 -50.833 -9.66699 -70.5 -29s-29.5 -43 -29.5 -71h-100c0 55.333 19.5 102.5 58.5 141.5s86.167 58.5 141.5 58.5s102.5 -19.5 141.5 -58.5s58.5 -86.167 58.5 -141.5
s-19.333 -102.333 -58 -141l-9 -9c2.66699 -2.66699 5.66699 -5.33398 9 -8.00098c38.667 -39.333 58 -86.666 58 -141.999s-19.5 -102.5 -58.5 -141.5s-86.167 -58.5 -141.5 -58.5v1z" />
    <glyph glyph-name="acute" unicode="&#xb4;" horiz-adv-x="600" 
d="M400 1400l-200 -400h-200l200 400h200z" />
    <glyph glyph-name="mu" unicode="&#xb5;" horiz-adv-x="1001" 
d="M601 0l0.000976562 53c-60 -35.333 -127 -53 -201 -53v1c-74 0 -140.667 17.333 -200 52v-453h-200v800v1h1v598h200v-599h-1c0 -55.333 19.333 -102.333 58 -141c39.333 -38.667 86.666 -58 141.999 -58v-1c55.333 0 102.5 19.5 141.5 58.5s58.5 86.167 58.5 141.5h1
v600h200v-1000h-200z" />
    <glyph glyph-name="paragraph" unicode="&#xb6;" horiz-adv-x="1400" 
d="M600 1400h600v-200h-200v-1200h-200v1200h-200v-1200h-200v600c-110.667 0 -205 39 -283 117s-117 172.333 -117 283s39 205 117 283s172.333 117 283 117h200zM200 1000c0 -55.333 19.5 -102.5 58.5 -141.5s86.167 -58.5 141.5 -58.5v400
c-55.333 0 -102.5 -19.5 -141.5 -58.5s-58.5 -86.167 -58.5 -141.5z" />
    <glyph glyph-name="periodcentered" unicode="&#xb7;" horiz-adv-x="500" 
d="M300 650c0 -41.333 -14.667 -76.666 -44 -105.999s-64.666 -44 -105.999 -44s-76.666 14.667 -105.999 44s-44 64.666 -44 105.999s14.667 76.666 44 105.999s64.666 44 105.999 44s76.666 -14.667 105.999 -44s44 -64.666 44 -105.999z" />
    <glyph glyph-name="cedilla" unicode="&#xb8;" horiz-adv-x="600" 
d="M100 100v-200c133.333 0 233.333 -66.667 300 -200c-66.667 -133.333 -200 -200 -400 -200v100c133.333 0 220.333 33.333 261 100c-40.667 66.667 -127.667 100 -261 100v300h100z" />
    <glyph glyph-name="uni00B9" unicode="&#xb9;" horiz-adv-x="377" 
d="M177 1400v-700.002h-100l-1 550h-1c-20.667 0 -38.334 7.33301 -53.001 22s-22 32.334 -22 53.001s7.33301 38.334 22 53.001s32.334 22 53.001 22h102z" />
    <glyph glyph-name="ordmasculine" unicode="&#xba;" horiz-adv-x="600" 
d="M400 900c0 -55.333 -19.334 -102.333 -58.001 -141c-39.333 -39.333 -86.666 -59 -141.999 -59s-102.5 19.5 -141.5 58.5s-58.5 86.167 -58.5 141.5v300c0 55.333 19.5 102.5 58.5 141.5s86.167 58.5 141.5 58.5s102.5 -19.5 141.5 -58.5s58.5 -86.167 58.5 -141.5v-300z
M299.999 1200c0 28 -9.66699 51.667 -29 71s-43 29 -71 29c-27.333 0 -50.833 -9.66699 -70.5 -29s-29.5 -43 -29.5 -71v-300c0 -27.333 9.83301 -50.833 29.5 -70.5s43.167 -29.5 70.5 -29.5c28 0 51.667 9.83301 71 29.5s29 43.167 29 70.5v300z" />
    <glyph glyph-name="guillemotright" unicode="&#xbb;" horiz-adv-x="1500" 
d="M500 300l500 400l-500 400v200l800 -600l-800 -600v200zM0 300l500 400l-500 400v200l800 -600l-800 -600v200z" />
    <glyph glyph-name="onequarter" unicode="&#xbc;" horiz-adv-x="1600" 
d="M1100 1400l-600 -1400h-200l600 1400h200zM1000 500h100v-300h200v200h100v-600h-100v300h-300v400zM177 1600v-700.002h-100l-1 550h-1c-20.667 0 -38.334 7.33301 -53.001 22s-22 32.334 -22 53.001s7.33301 38.334 22 53.001s32.334 22 53.001 22h102z" />
    <glyph glyph-name="onehalf" unicode="&#xbd;" horiz-adv-x="1600" 
d="M1100 1400l-600 -1400h-200l600 1400h200zM177 1600v-700.002h-100l-1 550h-1c-20.667 0 -38.334 7.33301 -53.001 22s-22 32.334 -22 53.001s7.33301 38.334 22 53.001s32.334 22 53.001 22h102zM1200 399.998c-27.333 0 -50.833 -9.66699 -70.5 -29
s-29.5 -43 -29.5 -71h-100c0 55.333 19.5 102.5 58.5 141.5s86.167 58.5 141.5 58.5s102.5 -19.5 141.5 -58.5s58.5 -86.167 58.5 -141.5s-19.5 -102.5 -58.5 -141.5s-86.167 -58.5 -141.5 -58.5c-27.333 0 -50.833 -9.66699 -70.5 -29s-29.5 -43 -29.5 -71v-100h300v-100
h-400v200c0 55.333 19.5 102.5 58.5 141.5s86.167 58.5 141.5 58.5c28 0 51.667 9.83301 71 29.5s29 43.167 29 70.5c0 28 -9.66699 51.667 -29 71s-43 29 -71 29z" />
    <glyph glyph-name="threequarters" unicode="&#xbe;" horiz-adv-x="1600" 
d="M1100 1400l-600 -1400h-200l600 1400h200zM200 901c-55.333 0 -102.5 19.5 -141.5 58.5s-58.5 86.167 -58.5 141.5h100c0 -28 9.83301 -51.667 29.5 -71s43.167 -29 70.5 -29v-1c28 0 51.667 9.83301 71 29.5s29 43.167 29 70.5c0 28 -9.66699 51.667 -29 71
s-43 29 -71 29h-50v100h50c28 0 51.667 9.83301 71 29.5s29 43.167 29 70.5c0 28 -9.66699 51.667 -29 71s-43 29 -71 29c-27.333 0 -50.833 -9.66699 -70.5 -29s-29.5 -43 -29.5 -71h-100c0 55.333 19.5 102.5 58.5 141.5s86.167 58.5 141.5 58.5s102.5 -19.5 141.5 -58.5
s58.5 -86.167 58.5 -141.5s-19.333 -102.333 -58 -141l-9 -9c2.66699 -2.66699 5.66699 -5.33398 9 -8.00098c38.667 -39.333 58 -86.666 58 -141.999s-19.5 -102.5 -58.5 -141.5s-86.167 -58.5 -141.5 -58.5v1zM1000 500h100v-300h200v200h100v-600h-100v300h-300v400z" />
    <glyph glyph-name="questiondown" unicode="&#xbf;" 
d="M250 1250c0 41.333 14.667 76.666 44 105.999s64.666 44 105.999 44s76.666 -14.667 105.999 -44s44 -64.666 44 -105.999s-14.667 -76.666 -44 -105.999s-64.666 -44 -105.999 -44s-76.666 14.667 -105.999 44s-44 64.666 -44 105.999zM400 200
c55.333 0 102.5 19.5 141.5 58.5s58.5 86.167 58.5 141.5h200c0 -110.667 -39 -205 -117 -283s-172.333 -117 -283 -117s-205 39 -283 117s-117 172.333 -117 283s39 205 117 283c53.333 53.333 114.333 88.333 183 105v112h200v-300h-100
c-55.333 0 -102.5 -19.5 -141.5 -58.5s-58.5 -86.167 -58.5 -141.5s19.5 -102.5 58.5 -141.5s86.167 -58.5 141.5 -58.5z" />
    <glyph glyph-name="Agrave" unicode="&#xc0;" 
d="M400 1900l100 -300h-200l-100 300h200zM600 600h-400v-599h-200v999c0 110.667 39 205 117 283s172.333 117 283 117s205 -39 283 -117s117 -172.333 117 -283v-1000h-200v600zM600 1000c0 55.333 -19.5 102.5 -58.5 141.5s-86.167 58.5 -141.5 58.5
s-102.5 -19.5 -141.5 -58.5s-58.5 -86.167 -58.5 -141.5v-200h400v200z" />
    <glyph glyph-name="Aacute" unicode="&#xc1;" 
d="M600 1900l-100 -300h-200l100 300h200zM600 600h-400v-599h-200v999c0 110.667 39 205 117 283s172.333 117 283 117s205 -39 283 -117s117 -172.333 117 -283v-1000h-200v600zM600 1000c0 55.333 -19.5 102.5 -58.5 141.5s-86.167 58.5 -141.5 58.5
s-102.5 -19.5 -141.5 -58.5s-58.5 -86.167 -58.5 -141.5v-200h400v200z" />
    <glyph glyph-name="Acircumflex" unicode="&#xc2;" 
d="M600 600h-400v-599h-200v999c0 110.667 39 205 117 283s172.333 117 283 117s205 -39 283 -117s117 -172.333 117 -283v-1000h-200v600zM600 1000c0 55.333 -19.5 102.5 -58.5 141.5s-86.167 58.5 -141.5 58.5s-102.5 -19.5 -141.5 -58.5s-58.5 -86.167 -58.5 -141.5
v-200h400v200zM201 1600l100 300h200l100 -300h-400z" />
    <glyph glyph-name="Atilde" unicode="&#xc3;" 
d="M200 1800c66.667 66.667 133.334 66.667 200.001 0s133.334 -66.667 200.001 0v-200c-66.667 -66.667 -133.334 -66.667 -200.001 0s-133.334 66.667 -200.001 0v200zM600 600h-400v-599h-200v999c0 110.667 39 205 117 283s172.333 117 283 117s205 -39 283 -117
s117 -172.333 117 -283v-1000h-200v600zM600 1000c0 55.333 -19.5 102.5 -58.5 141.5s-86.167 58.5 -141.5 58.5s-102.5 -19.5 -141.5 -58.5s-58.5 -86.167 -58.5 -141.5v-200h400v200z" />
    <glyph glyph-name="Adieresis" unicode="&#xc4;" 
d="M600 600h-400v-599h-200v999c0 110.667 39 205 117 283s172.333 117 283 117s205 -39 283 -117s117 -172.333 117 -283v-1000h-200v600zM600 1000c0 55.333 -19.5 102.5 -58.5 141.5s-86.167 58.5 -141.5 58.5s-102.5 -19.5 -141.5 -58.5s-58.5 -86.167 -58.5 -141.5
v-200h400v200zM300 1700c0 -27.333 -9.83301 -50.833 -29.5 -70.5s-43.167 -29.5 -70.5 -29.5s-50.833 9.83301 -70.5 29.5s-29.5 43.167 -29.5 70.5s9.83301 50.833 29.5 70.5s43.167 29.5 70.5 29.5s50.833 -9.83301 70.5 -29.5s29.5 -43.167 29.5 -70.5zM700 1700
c0 -27.333 -9.83301 -50.833 -29.5 -70.5s-43.167 -29.5 -70.5 -29.5s-50.833 9.83301 -70.5 29.5s-29.5 43.167 -29.5 70.5s9.83301 50.833 29.5 70.5s43.167 29.5 70.5 29.5s50.833 -9.83301 70.5 -29.5s29.5 -43.167 29.5 -70.5z" />
    <glyph glyph-name="Aring" unicode="&#xc5;" 
d="M600 600h-400v-599h-200v999c0 110.667 39 205 117 283s172.333 117 283 117s205 -39 283 -117s117 -172.333 117 -283v-1000h-200v600zM600 1000c0 55.333 -19.5 102.5 -58.5 141.5s-86.167 58.5 -141.5 58.5s-102.5 -19.5 -141.5 -58.5s-58.5 -86.167 -58.5 -141.5
v-200h400v200zM600 1600c0 -55.333 -19.5 -102.5 -58.5 -141.5s-86.167 -58.5 -141.5 -58.5s-102.5 19.5 -141.5 58.5s-58.5 86.167 -58.5 141.5s19.5 102.5 58.5 141.5s86.167 58.5 141.5 58.5s102.5 -19.5 141.5 -58.5s58.5 -86.167 58.5 -141.5zM400 1700
c-27.333 0 -50.833 -9.83301 -70.5 -29.5s-29.5 -43.167 -29.5 -70.5s9.83301 -50.833 29.5 -70.5s43.167 -29.5 70.5 -29.5s50.833 9.83301 70.5 29.5s29.5 43.167 29.5 70.5s-9.83301 50.833 -29.5 70.5s-43.167 29.5 -70.5 29.5z" />
    <glyph glyph-name="AE" unicode="&#xc6;" horiz-adv-x="1600" 
d="M600 600h-400v-599h-200v999c0 110.667 39 205 117 283s172.333 117 283 117c74 0 140.667 -17.333 200 -52v52h800v-200h-600v-400h399v-200h-399v-400h600v-200h-800v600zM600 1000c0 55.333 -19.5 102.5 -58.5 141.5s-86.167 58.5 -141.5 58.5
s-102.5 -19.5 -141.5 -58.5s-58.5 -86.167 -58.5 -141.5v-200h400v200z" />
    <glyph glyph-name="Ccedilla" unicode="&#xc7;" 
d="M400 200c55.333 0 102.5 19.5 141.5 58.5s58.5 86.167 58.5 141.5h200c0 -110.667 -39 -205 -117 -283c-66.667 -66.667 -145 -105 -235 -115v-102c133.333 0 233.333 -66.667 300 -200c-66.667 -133.333 -200 -200 -400 -200v100c133.333 0 220.333 33.333 261 100
c-40.667 66.667 -127.667 100 -261 100v203c-88.667 10 -165.667 48 -231 114c-78 78 -117 172.333 -117 283v600c0 110.667 39 205 117 283s172.333 117 283 117s205 -39 283 -117s117 -172.333 117 -283h-200c0 55.333 -19.5 102.5 -58.5 141.5s-86.167 58.5 -141.5 58.5
s-102.5 -19.5 -141.5 -58.5s-58.5 -86.167 -58.5 -141.5v-600c0 -55.333 19.5 -102.5 58.5 -141.5s86.167 -58.5 141.5 -58.5z" />
    <glyph glyph-name="Egrave" unicode="&#xc8;" 
d="M800 1400v-200h-600v-400h399v-200h-399v-400h600v-200h-800v1400h800zM400 1900l100 -300h-200l-100 300h200z" />
    <glyph glyph-name="Eacute" unicode="&#xc9;" 
d="M800 1400v-200h-600v-400h399v-200h-399v-400h600v-200h-800v1400h800zM600 1900l-100 -300h-200l100 300h200z" />
    <glyph glyph-name="Ecircumflex" unicode="&#xca;" 
d="M800 1400v-200h-600v-400h399v-200h-399v-400h600v-200h-800v1400h800zM200 1600l100 300h200l100 -300h-400z" />
    <glyph glyph-name="Edieresis" unicode="&#xcb;" 
d="M800 1400v-200h-600v-400h399v-200h-399v-400h600v-200h-800v1400h800zM300 1700c0 -27.333 -9.83301 -50.833 -29.5 -70.5s-43.167 -29.5 -70.5 -29.5s-50.833 9.83301 -70.5 29.5s-29.5 43.167 -29.5 70.5s9.83301 50.833 29.5 70.5s43.167 29.5 70.5 29.5
s50.833 -9.83301 70.5 -29.5s29.5 -43.167 29.5 -70.5zM700 1700c0 -27.333 -9.83301 -50.833 -29.5 -70.5s-43.167 -29.5 -70.5 -29.5s-50.833 9.83301 -70.5 29.5s-29.5 43.167 -29.5 70.5s9.83301 50.833 29.5 70.5s43.167 29.5 70.5 29.5s50.833 -9.83301 70.5 -29.5
s29.5 -43.167 29.5 -70.5z" />
    <glyph glyph-name="Igrave" unicode="&#xcc;" horiz-adv-x="400" 
d="M200 1400v-1400h-200v1400h200zM100 1900l100 -300h-200l-100 300h200z" />
    <glyph glyph-name="Iacute" unicode="&#xcd;" horiz-adv-x="500" 
d="M200 1400v-1400h-200v1400h200zM300 1900l-100 -300h-200l100 300h200z" />
    <glyph glyph-name="Icircumflex" unicode="&#xce;" horiz-adv-x="600" 
d="M300 1400v-1400h-200v1400h200zM0 1600l100 300h200l100 -300h-400z" />
    <glyph glyph-name="Idieresis" unicode="&#xcf;" horiz-adv-x="800" 
d="M400 1400v-1400h-200v1400h200zM200 1700c0 -27.333 -9.83301 -50.833 -29.5 -70.5s-43.167 -29.5 -70.5 -29.5s-50.833 9.83301 -70.5 29.5s-29.5 43.167 -29.5 70.5s9.83301 50.833 29.5 70.5s43.167 29.5 70.5 29.5s50.833 -9.83301 70.5 -29.5
s29.5 -43.167 29.5 -70.5zM600 1700c0 -27.333 -9.83301 -50.833 -29.5 -70.5s-43.167 -29.5 -70.5 -29.5s-50.833 9.83301 -70.5 29.5s-29.5 43.167 -29.5 70.5s9.83301 50.833 29.5 70.5s43.167 29.5 70.5 29.5s50.833 -9.83301 70.5 -29.5s29.5 -43.167 29.5 -70.5z" />
    <glyph glyph-name="Eth" unicode="&#xd0;" horiz-adv-x="1100" 
d="M300 600v-400h200c55.333 0 102.5 19.5 141.5 58.5s58.5 86.167 58.5 141.5v600c0 55.333 -19.5 102.5 -58.5 141.5s-86.167 58.5 -141.5 58.5h-200v-400h200v-200h-200zM100 800v600h400c110.667 0 205 -39 283 -117s117 -172.333 117 -283v-600
c0 -110.667 -39 -205 -117 -283s-172.333 -117 -283 -117h-400v600h-100v200h100z" />
    <glyph glyph-name="Ntilde" unicode="&#xd1;" 
d="M200 933v-933h-200v1400h200l400 -933v933h200v-1400h-200zM200 1800c66.667 66.667 133.334 66.667 200.001 0s133.334 -66.667 200.001 0v-200c-66.667 -66.667 -133.334 -66.667 -200.001 0s-133.334 66.667 -200.001 0v200z" />
    <glyph glyph-name="Ograve" unicode="&#xd2;" 
d="M800 400c0 -110.667 -39 -205 -117 -283s-172.333 -117 -283 -117s-205 39 -283 117s-117 172.333 -117 283v600c0 110.667 39 205 117 283s172.333 117 283 117s205 -39 283 -117s117 -172.333 117 -283v-600zM600 1000c0 55.333 -19.5 102.5 -58.5 141.5
s-86.167 58.5 -141.5 58.5s-102.5 -19.5 -141.5 -58.5s-58.5 -86.167 -58.5 -141.5v-600c0 -55.333 19.5 -102.5 58.5 -141.5s86.167 -58.5 141.5 -58.5s102.5 19.5 141.5 58.5s58.5 86.167 58.5 141.5v600zM400 1900l100 -300h-200l-100 300h200z" />
    <glyph glyph-name="Oacute" unicode="&#xd3;" 
d="M800 400c0 -110.667 -39 -205 -117 -283s-172.333 -117 -283 -117s-205 39 -283 117s-117 172.333 -117 283v600c0 110.667 39 205 117 283s172.333 117 283 117s205 -39 283 -117s117 -172.333 117 -283v-600zM600 1000c0 55.333 -19.5 102.5 -58.5 141.5
s-86.167 58.5 -141.5 58.5s-102.5 -19.5 -141.5 -58.5s-58.5 -86.167 -58.5 -141.5v-600c0 -55.333 19.5 -102.5 58.5 -141.5s86.167 -58.5 141.5 -58.5s102.5 19.5 141.5 58.5s58.5 86.167 58.5 141.5v600zM600 1900l-100 -300h-200l100 300h200z" />
    <glyph glyph-name="Ocircumflex" unicode="&#xd4;" 
d="M800 400c0 -110.667 -39 -205 -117 -283s-172.333 -117 -283 -117s-205 39 -283 117s-117 172.333 -117 283v600c0 110.667 39 205 117 283s172.333 117 283 117s205 -39 283 -117s117 -172.333 117 -283v-600zM600 1000c0 55.333 -19.5 102.5 -58.5 141.5
s-86.167 58.5 -141.5 58.5s-102.5 -19.5 -141.5 -58.5s-58.5 -86.167 -58.5 -141.5v-600c0 -55.333 19.5 -102.5 58.5 -141.5s86.167 -58.5 141.5 -58.5s102.5 19.5 141.5 58.5s58.5 86.167 58.5 141.5v600zM200 1600l100 300h200l100 -300h-400z" />
    <glyph glyph-name="Otilde" unicode="&#xd5;" 
d="M800 400c0 -110.667 -39 -205 -117 -283s-172.333 -117 -283 -117s-205 39 -283 117s-117 172.333 -117 283v600c0 110.667 39 205 117 283s172.333 117 283 117s205 -39 283 -117s117 -172.333 117 -283v-600zM600 1000c0 55.333 -19.5 102.5 -58.5 141.5
s-86.167 58.5 -141.5 58.5s-102.5 -19.5 -141.5 -58.5s-58.5 -86.167 -58.5 -141.5v-600c0 -55.333 19.5 -102.5 58.5 -141.5s86.167 -58.5 141.5 -58.5s102.5 19.5 141.5 58.5s58.5 86.167 58.5 141.5v600zM200 1800c66.667 66.667 133.334 66.667 200.001 0
s133.334 -66.667 200.001 0v-200c-66.667 -66.667 -133.334 -66.667 -200.001 0s-133.334 66.667 -200.001 0v200z" />
    <glyph glyph-name="Odieresis" unicode="&#xd6;" 
d="M800 400c0 -110.667 -39 -205 -117 -283s-172.333 -117 -283 -117s-205 39 -283 117s-117 172.333 -117 283v600c0 110.667 39 205 117 283s172.333 117 283 117s205 -39 283 -117s117 -172.333 117 -283v-600zM600 1000c0 55.333 -19.5 102.5 -58.5 141.5
s-86.167 58.5 -141.5 58.5s-102.5 -19.5 -141.5 -58.5s-58.5 -86.167 -58.5 -141.5v-600c0 -55.333 19.5 -102.5 58.5 -141.5s86.167 -58.5 141.5 -58.5s102.5 19.5 141.5 58.5s58.5 86.167 58.5 141.5v600zM300 1700c0 -27.333 -9.83301 -50.833 -29.5 -70.5
s-43.167 -29.5 -70.5 -29.5s-50.833 9.83301 -70.5 29.5s-29.5 43.167 -29.5 70.5s9.83301 50.833 29.5 70.5s43.167 29.5 70.5 29.5s50.833 -9.83301 70.5 -29.5s29.5 -43.167 29.5 -70.5zM700 1700c0 -27.333 -9.83301 -50.833 -29.5 -70.5s-43.167 -29.5 -70.5 -29.5
s-50.833 9.83301 -70.5 29.5s-29.5 43.167 -29.5 70.5s9.83301 50.833 29.5 70.5s43.167 29.5 70.5 29.5s50.833 -9.83301 70.5 -29.5s29.5 -43.167 29.5 -70.5z" />
    <glyph glyph-name="multiply" unicode="&#xd7;" horiz-adv-x="909" 
d="M356 843l212 212l141 -141l-212 -212l212 -212l-141 -142l-212 212l-213 -212l-141 142l212 212l-212 212l141 141z" />
    <glyph glyph-name="Oslash" unicode="&#xd8;" 
d="M700 1500l-56.999 -181.999c13.333 -10.667 26.666 -22.334 39.999 -35.001c78 -78 117 -172.333 117 -283v-600c0 -110.667 -39 -205 -117 -283s-172.333 -117 -283 -117c-57.333 -0 -110.333 10.333 -159 31l-41 -131h-100l57 181c-14 10.667 -27.333 22.667 -40 36
c-78 78 -117 172.333 -117 283v600c0 110.667 39 205 117 283s172.333 117 283 117c57.333 0 110.333 -10.667 159 -32l41 132h100zM600.001 1000c0 36.667 -8.66699 69.667 -26 99l-273 -874c29.333 -16.667 62.333 -25 99 -25c55.333 0 102.5 19.5 141.5 58.5
s58.5 86.167 58.5 141.5v600zM400.001 1200c-55.333 0 -102.5 -19.5 -141.5 -58.5s-58.5 -86.167 -58.5 -141.5v-600c0 -36.667 8.33301 -69.667 25 -99l273 874c-29.333 16.667 -62 25 -98 25z" />
    <glyph glyph-name="Ugrave" unicode="&#xd9;" horiz-adv-x="1001" 
d="M1 400l-1 1000h200l1 -1000h-1c0 -55.333 19.5 -102.5 58.5 -141.5s86.167 -58.5 141.5 -58.5s102.5 19.5 141.5 58.5s58.5 86.167 58.5 141.5h1l-1 1000h200l1 -1000h-1c0 -110.667 -39 -205 -117 -283s-172.333 -117 -283 -117s-205 39 -283 117s-117 172.333 -117 283
h1zM400 1900l100 -300h-200l-100 300h200z" />
    <glyph glyph-name="Uacute" unicode="&#xda;" horiz-adv-x="1001" 
d="M1 400l-1 1000h200l1 -1000h-1c0 -55.333 19.5 -102.5 58.5 -141.5s86.167 -58.5 141.5 -58.5s102.5 19.5 141.5 58.5s58.5 86.167 58.5 141.5h1l-1 1000h200l1 -1000h-1c0 -110.667 -39 -205 -117 -283s-172.333 -117 -283 -117s-205 39 -283 117s-117 172.333 -117 283
h1zM600 1900l-100 -300h-200l100 300h200z" />
    <glyph glyph-name="Ucircumflex" unicode="&#xdb;" horiz-adv-x="1001" 
d="M1 400l-1 1000h200l1 -1000h-1c0 -55.333 19.5 -102.5 58.5 -141.5s86.167 -58.5 141.5 -58.5s102.5 19.5 141.5 58.5s58.5 86.167 58.5 141.5h1l-1 1000h200l1 -1000h-1c0 -110.667 -39 -205 -117 -283s-172.333 -117 -283 -117s-205 39 -283 117s-117 172.333 -117 283
h1zM200 1600l100 300h200l100 -300h-400z" />
    <glyph glyph-name="Udieresis" unicode="&#xdc;" horiz-adv-x="1001" 
d="M1 400l-1 1000h200l1 -1000h-1c0 -55.333 19.5 -102.5 58.5 -141.5s86.167 -58.5 141.5 -58.5s102.5 19.5 141.5 58.5s58.5 86.167 58.5 141.5h1l-1 1000h200l1 -1000h-1c0 -110.667 -39 -205 -117 -283s-172.333 -117 -283 -117s-205 39 -283 117s-117 172.333 -117 283
h1zM300 1700c0 -27.333 -9.83301 -50.833 -29.5 -70.5s-43.167 -29.5 -70.5 -29.5s-50.833 9.83301 -70.5 29.5s-29.5 43.167 -29.5 70.5s9.83301 50.833 29.5 70.5s43.167 29.5 70.5 29.5s50.833 -9.83301 70.5 -29.5s29.5 -43.167 29.5 -70.5zM700 1700
c0 -27.333 -9.83301 -50.833 -29.5 -70.5s-43.167 -29.5 -70.5 -29.5s-50.833 9.83301 -70.5 29.5s-29.5 43.167 -29.5 70.5s9.83301 50.833 29.5 70.5s43.167 29.5 70.5 29.5s50.833 -9.83301 70.5 -29.5s29.5 -43.167 29.5 -70.5z" />
    <glyph glyph-name="Yacute" unicode="&#xdd;" 
d="M300 700l-300 700h200l200 -467l200 467h200l-300 -700v-700h-200v700zM600 1900l-100 -300h-200l100 300h200z" />
    <glyph glyph-name="Thorn" unicode="&#xde;" 
d="M200 300v-300h-200v1400h200v-300h200c110.667 0 205 -39 283 -117s117 -172.333 117 -283s-39 -205 -117 -283s-172.333 -117 -283 -117h-200zM200 900v-400h200c55.333 0 102.5 19.5 141.5 58.5s58.5 86.167 58.5 141.5s-19.5 102.5 -58.5 141.5
s-86.167 58.5 -141.5 58.5h-200z" />
    <glyph glyph-name="germandbls" unicode="&#xdf;" horiz-adv-x="1100" 
d="M500 0l-100 0.000976562v200h100c55.333 0 102.5 19.5 141.5 58.5s58.5 86.167 58.5 141.5s-19.5 102.5 -58.5 141.5s-86.167 58.5 -141.5 58.5h-300v-600h-200v1000c0 110.667 39 205 117 283s172.333 117 283 117s205 -39 283 -117s117 -172.333 117 -283
c0 -98.667 -31 -184.334 -93 -257.001c26.667 -16 52 -36 76 -60c78 -78 117 -172.333 117 -283s-39 -205 -117 -283s-172.333 -117 -283 -117zM400 800.001c55.333 0 102.5 19.5 141.5 58.5s58.5 86.167 58.5 141.5s-19.5 102.5 -58.5 141.5s-86.167 58.5 -141.5 58.5
s-102.5 -19.5 -141.5 -58.5s-58.5 -86.167 -58.5 -141.5s19.5 -102.5 58.5 -141.5s86.167 -58.5 141.5 -58.5z" />
    <glyph glyph-name="agrave" unicode="&#xe0;" 
d="M600 398v202.999c-0.666992 54.667 -20 101.334 -58 140.001c-39.333 38.667 -86.666 58 -141.999 58v1c-55.333 0 -102.5 -19.5 -141.5 -58.5s-58.5 -86.167 -58.5 -141.5v-199c0 -55.333 19.5 -102.5 58.5 -141.5s86.167 -58.5 141.5 -58.5v-1
c55.333 0 102.666 19.667 141.999 59c38 38 57.333 84.333 58 139zM800 -0.000976562h-200v52c-59.333 -34.667 -126 -52 -200 -52v1c-110.667 0 -205 39 -283 117s-117 172 -117 282v200c0 110.667 39 205 117 283s172.333 117 283 117v-1c74 0 140.667 -17.333 200 -52v53
h200v-1000zM400 1500l100 -300h-200l-100 300h200z" />
    <glyph glyph-name="aacute" unicode="&#xe1;" 
d="M600 398v202.999c-0.666992 54.667 -20 101.334 -58 140.001c-39.333 38.667 -86.666 58 -141.999 58v1c-55.333 0 -102.5 -19.5 -141.5 -58.5s-58.5 -86.167 -58.5 -141.5v-199c0 -55.333 19.5 -102.5 58.5 -141.5s86.167 -58.5 141.5 -58.5v-1
c55.333 0 102.666 19.667 141.999 59c38 38 57.333 84.333 58 139zM800 -0.000976562h-200v52c-59.333 -34.667 -126 -52 -200 -52v1c-110.667 0 -205 39 -283 117s-117 172 -117 282v200c0 110.667 39 205 117 283s172.333 117 283 117v-1c74 0 140.667 -17.333 200 -52v53
h200v-1000zM600 1500l-100 -300h-200l100 300h200z" />
    <glyph glyph-name="acircumflex" unicode="&#xe2;" 
d="M600 398v202.999c-0.666992 54.667 -20 101.334 -58 140.001c-39.333 38.667 -86.666 58 -141.999 58v1c-55.333 0 -102.5 -19.5 -141.5 -58.5s-58.5 -86.167 -58.5 -141.5v-199c0 -55.333 19.5 -102.5 58.5 -141.5s86.167 -58.5 141.5 -58.5v-1
c55.333 0 102.666 19.667 141.999 59c38 38 57.333 84.333 58 139zM800 -0.000976562h-200v52c-59.333 -34.667 -126 -52 -200 -52v1c-110.667 0 -205 39 -283 117s-117 172 -117 282v200c0 110.667 39 205 117 283s172.333 117 283 117v-1c74 0 140.667 -17.333 200 -52v53
h200v-1000zM200 1200l100 300h200l100 -300h-400z" />
    <glyph glyph-name="atilde" unicode="&#xe3;" 
d="M600 398v202.999c-0.666992 54.667 -20 101.334 -58 140.001c-39.333 38.667 -86.666 58 -141.999 58v1c-55.333 0 -102.5 -19.5 -141.5 -58.5s-58.5 -86.167 -58.5 -141.5v-199c0 -55.333 19.5 -102.5 58.5 -141.5s86.167 -58.5 141.5 -58.5v-1
c55.333 0 102.666 19.667 141.999 59c38 38 57.333 84.333 58 139zM800 -0.000976562h-200v52c-59.333 -34.667 -126 -52 -200 -52v1c-110.667 0 -205 39 -283 117s-117 172 -117 282v200c0 110.667 39 205 117 283s172.333 117 283 117v-1c74 0 140.667 -17.333 200 -52v53
h200v-1000zM200 1450c66.667 66.667 133.334 66.667 200.001 0s133.334 -66.667 200.001 0v-200c-66.667 -66.667 -133.334 -66.667 -200.001 0s-133.334 66.667 -200.001 0v200z" />
    <glyph glyph-name="adieresis" unicode="&#xe4;" 
d="M600 398v202.999c-0.666992 54.667 -20 101.334 -58 140.001c-39.333 38.667 -86.666 58 -141.999 58v1c-55.333 0 -102.5 -19.5 -141.5 -58.5s-58.5 -86.167 -58.5 -141.5v-199c0 -55.333 19.5 -102.5 58.5 -141.5s86.167 -58.5 141.5 -58.5v-1
c55.333 0 102.666 19.667 141.999 59c38 38 57.333 84.333 58 139zM800 -0.000976562h-200v52c-59.333 -34.667 -126 -52 -200 -52v1c-110.667 0 -205 39 -283 117s-117 172 -117 282v200c0 110.667 39 205 117 283s172.333 117 283 117v-1c74 0 140.667 -17.333 200 -52v53
h200v-1000zM300 1300c0 -27.333 -9.83301 -50.833 -29.5 -70.5s-43.167 -29.5 -70.5 -29.5s-50.833 9.83301 -70.5 29.5s-29.5 43.167 -29.5 70.5s9.83301 50.833 29.5 70.5s43.167 29.5 70.5 29.5s50.833 -9.83301 70.5 -29.5s29.5 -43.167 29.5 -70.5zM700 1300
c0 -27.333 -9.83301 -50.833 -29.5 -70.5s-43.167 -29.5 -70.5 -29.5s-50.833 9.83301 -70.5 29.5s-29.5 43.167 -29.5 70.5s9.83301 50.833 29.5 70.5s43.167 29.5 70.5 29.5s50.833 -9.83301 70.5 -29.5s29.5 -43.167 29.5 -70.5z" />
    <glyph glyph-name="aring" unicode="&#xe5;" 
d="M600 398v202.999c-0.666992 54.667 -20 101.334 -58 140.001c-39.333 38.667 -86.666 58 -141.999 58v1c-55.333 0 -102.5 -19.5 -141.5 -58.5s-58.5 -86.167 -58.5 -141.5v-199c0 -55.333 19.5 -102.5 58.5 -141.5s86.167 -58.5 141.5 -58.5v-1
c55.333 0 102.666 19.667 141.999 59c38 38 57.333 84.333 58 139zM800 -0.000976562h-200v52c-59.333 -34.667 -126 -52 -200 -52v1c-110.667 0 -205 39 -283 117s-117 172 -117 282v200c0 110.667 39 205 117 283s172.333 117 283 117v-1c74 0 140.667 -17.333 200 -52v53
h200v-1000zM600 1400c0 -55.333 -19.5 -102.5 -58.5 -141.5s-86.167 -58.5 -141.5 -58.5s-102.5 19.5 -141.5 58.5s-58.5 86.167 -58.5 141.5s19.5 102.5 58.5 141.5s86.167 58.5 141.5 58.5s102.5 -19.5 141.5 -58.5s58.5 -86.167 58.5 -141.5zM400 1500
c-27.333 0 -50.833 -9.83301 -70.5 -29.5s-29.5 -43.167 -29.5 -70.5s9.83301 -50.833 29.5 -70.5s43.167 -29.5 70.5 -29.5s50.833 9.83301 70.5 29.5s29.5 43.167 29.5 70.5s-9.83301 50.833 -29.5 70.5s-43.167 29.5 -70.5 29.5z" />
    <glyph glyph-name="ae" unicode="&#xe6;" horiz-adv-x="1600" 
d="M1000 200h300v-200h-300v1c-74 0 -140.667 17.333 -200 52v-53h-200v52c-59.333 -34.667 -126 -52 -200 -52v1c-110.667 0 -205 39 -283 117s-117 172 -117 282v200c0 110.667 39 205 117 283s172.333 117 283 117v-1c74 0 140.667 -17.333 200 -52v53h200v-53
c59.333 35.333 126 53 200 53c110.667 0 205 -39 283 -117s117 -172.333 117 -283v-200h-600v-8c2 -51.333 21.667 -95.333 59 -132c38.667 -39.333 85.667 -59 141 -59v-1zM600 398v2v201v4c-2 52.667 -21.333 98 -58 136c-39.333 38.667 -86.666 58 -141.999 58v1
c-55.333 0 -102.5 -19.5 -141.5 -58.5s-58.5 -86.167 -58.5 -141.5v-199c0 -55.333 19.5 -102.5 58.5 -141.5s86.167 -58.5 141.5 -58.5v-1c55.333 0 102.666 19.667 141.999 59c38 38 57.333 84.333 58 139zM800 600h399.999c0 55.333 -19.5 102.5 -58.5 141.5
s-86.167 58.5 -141.5 58.5s-102.666 -19.667 -141.999 -59c-36.667 -36.667 -56 -81 -58 -133v-8z" />
    <glyph glyph-name="ccedilla" unicode="&#xe7;" 
d="M348 4c-88.667 10.667 -165.667 48.667 -231 114c-78 78 -117 172 -117 282v200c0 110.667 39 205 117 283s172.333 117 283 117s205 -39 283 -117s117 -172.333 117 -283h-200c0 55.333 -19.5 102.5 -58.5 141.5s-86.167 58.5 -141.5 58.5s-102.5 -19.5 -141.5 -58.5
s-58.5 -86.167 -58.5 -141.5v-199c0 -55.333 19.5 -102.5 58.5 -141.5s86.167 -58.5 141.5 -58.5v-1c55.333 0 102.5 19.5 141.5 58.5s58.5 86.167 58.5 141.5h200c0 -110.667 -39 -205 -117 -283c-66.667 -66.667 -145 -104.667 -235 -114v-103
c133.333 0 233.333 -66.667 300 -200c-66.667 -133.333 -200 -200 -400 -200v100c133.333 0 220.333 33.333 261 100c-40.667 66.667 -127.667 100 -261 100v204z" />
    <glyph glyph-name="egrave" unicode="&#xe8;" 
d="M400 200l300 0.000976562v-200h-300v1c-110.667 0 -205 39 -283 117s-117 172 -117 282v200c0 110.667 39 205 117 283s172.333 117 283 117s205 -39 283 -117s117 -172.333 117 -283v-200h-600c0 -54.667 19.667 -101.334 59 -140.001
c38.667 -39.333 85.667 -59 141 -59v-1zM200 600.001h400c0 55.333 -19.5 102.5 -58.5 141.5s-86.167 58.5 -141.5 58.5s-102.5 -19.5 -141.5 -58.5s-58.5 -86.167 -58.5 -141.5zM400 1500l100 -300h-200l-100 300h200z" />
    <glyph glyph-name="eacute" unicode="&#xe9;" 
d="M400 200l300 0.000976562v-200h-300v1c-110.667 0 -205 39 -283 117s-117 172 -117 282v200c0 110.667 39 205 117 283s172.333 117 283 117s205 -39 283 -117s117 -172.333 117 -283v-200h-600c0 -54.667 19.667 -101.334 59 -140.001
c38.667 -39.333 85.667 -59 141 -59v-1zM200 600.001h400c0 55.333 -19.5 102.5 -58.5 141.5s-86.167 58.5 -141.5 58.5s-102.5 -19.5 -141.5 -58.5s-58.5 -86.167 -58.5 -141.5zM600 1500l-100 -300h-200l100 300h200z" />
    <glyph glyph-name="ecircumflex" unicode="&#xea;" 
d="M400 200l300 0.000976562v-200h-300v1c-110.667 0 -205 39 -283 117s-117 172 -117 282v200c0 110.667 39 205 117 283s172.333 117 283 117s205 -39 283 -117s117 -172.333 117 -283v-200h-600c0 -54.667 19.667 -101.334 59 -140.001
c38.667 -39.333 85.667 -59 141 -59v-1zM200 600.001h400c0 55.333 -19.5 102.5 -58.5 141.5s-86.167 58.5 -141.5 58.5s-102.5 -19.5 -141.5 -58.5s-58.5 -86.167 -58.5 -141.5zM200 1200l100 300h200l100 -300h-400z" />
    <glyph glyph-name="edieresis" unicode="&#xeb;" 
d="M400 200l300 0.000976562v-200h-300v1c-110.667 0 -205 39 -283 117s-117 172 -117 282v200c0 110.667 39 205 117 283s172.333 117 283 117s205 -39 283 -117s117 -172.333 117 -283v-200h-600c0 -54.667 19.667 -101.334 59 -140.001
c38.667 -39.333 85.667 -59 141 -59v-1zM200 600.001h400c0 55.333 -19.5 102.5 -58.5 141.5s-86.167 58.5 -141.5 58.5s-102.5 -19.5 -141.5 -58.5s-58.5 -86.167 -58.5 -141.5zM300 1300c0 -27.333 -9.83301 -50.833 -29.5 -70.5s-43.167 -29.5 -70.5 -29.5
s-50.833 9.83301 -70.5 29.5s-29.5 43.167 -29.5 70.5s9.83301 50.833 29.5 70.5s43.167 29.5 70.5 29.5s50.833 -9.83301 70.5 -29.5s29.5 -43.167 29.5 -70.5zM700 1300c0 -27.333 -9.83301 -50.833 -29.5 -70.5s-43.167 -29.5 -70.5 -29.5s-50.833 9.83301 -70.5 29.5
s-29.5 43.167 -29.5 70.5s9.83301 50.833 29.5 70.5s43.167 29.5 70.5 29.5s50.833 -9.83301 70.5 -29.5s29.5 -43.167 29.5 -70.5z" />
    <glyph glyph-name="igrave" unicode="&#xec;" horiz-adv-x="400" 
d="M200 1000v-1000h-200v1000h200zM100 1500l100 -300h-200l-100 300h200z" />
    <glyph glyph-name="iacute" unicode="&#xed;" horiz-adv-x="500" 
d="M200 1000v-1000h-200v1000h200zM300 1500l-100 -300h-200l100 300h200z" />
    <glyph glyph-name="icircumflex" unicode="&#xee;" horiz-adv-x="600" 
d="M300 1000v-1000h-200v1000h200zM0 1200l100 300h200l100 -300h-400z" />
    <glyph glyph-name="idieresis" unicode="&#xef;" horiz-adv-x="800" 
d="M400 1000v-1000h-200v1000h200zM200 1300c0 -27.333 -9.83301 -50.833 -29.5 -70.5s-43.167 -29.5 -70.5 -29.5s-50.833 9.83301 -70.5 29.5s-29.5 43.167 -29.5 70.5s9.83301 50.833 29.5 70.5s43.167 29.5 70.5 29.5s50.833 -9.83301 70.5 -29.5
s29.5 -43.167 29.5 -70.5zM600 1300c0 -27.333 -9.83301 -50.833 -29.5 -70.5s-43.167 -29.5 -70.5 -29.5s-50.833 9.83301 -70.5 29.5s-29.5 43.167 -29.5 70.5s9.83301 50.833 29.5 70.5s43.167 29.5 70.5 29.5s50.833 -9.83301 70.5 -29.5s29.5 -43.167 29.5 -70.5z" />
    <glyph glyph-name="eth" unicode="&#xf0;" 
d="M800 399c-0.666992 -110.667 -39.667 -204.667 -117 -282c-78 -78 -172.333 -117 -283 -117v1c-110.667 0 -205 39 -283 117s-117 172 -117 282v200c0 110.667 39 205 117 283s172.333 117 283 117v-1c74 0 140.667 -17.333 200 -52v53c0 55.333 -19.5 102.5 -58.5 141.5
s-86.167 58.5 -141.5 58.5h-200v200h200c110.667 0 205 -39 283 -117s117 -172.333 117 -283v-601zM600 600c0 54.667 -19.334 101.667 -58.001 141c-39.333 38.667 -86.666 58 -141.999 58v1c-55.333 0 -102.5 -19.5 -141.5 -58.5s-58.5 -86.167 -58.5 -141.5v-199
c0 -55.333 19.5 -102.5 58.5 -141.5s86.167 -58.5 141.5 -58.5v-1c55.333 0 102.5 19.5 141.5 58.5s58.5 86.167 58.5 141.5v200z" />
    <glyph glyph-name="ntilde" unicode="&#xf1;" 
d="M800 600v-599h-200v599c0 55.333 -19.5 102.5 -58.5 141.5s-86.167 58.5 -141.5 58.5s-102.5 -19.5 -141.5 -58.5s-58.5 -86.167 -58.5 -141.5v-600h-200v1000h200v-52c59.333 34.667 126 52 200 52c110.667 0 205 -39 283 -117s117 -172.333 117 -283zM200 1450
c66.667 66.667 133.334 66.667 200.001 0s133.334 -66.667 200.001 0v-200c-66.667 -66.667 -133.334 -66.667 -200.001 0s-133.334 66.667 -200.001 0v200z" />
    <glyph glyph-name="ograve" unicode="&#xf2;" 
d="M400 800c-55.333 0 -102.5 -19.5 -141.5 -58.5s-58.5 -86.167 -58.5 -141.5v-199c0 -55.333 19.5 -102.5 58.5 -141.5s86.167 -58.5 141.5 -58.5v-1c55.333 0 102.5 19.5 141.5 58.5s58.5 86.167 58.5 141.5v199c0 55.333 -19.5 102.5 -58.5 141.5
s-86.167 58.5 -141.5 58.5v1zM400 1c-110.667 0 -205 39 -283 117s-117 172 -117 282v200c0 110.667 39 205 117 283s172.333 117 283 117v-1c110.667 0 205 -39 283 -117s117 -172.333 117 -283v-200c-0.666992 -110.667 -39.667 -204.667 -117 -282
c-78 -78 -172.333 -117 -283 -117v1zM400 1500l100 -300h-200l-100 300h200z" />
    <glyph glyph-name="oacute" unicode="&#xf3;" 
d="M400 800c-55.333 0 -102.5 -19.5 -141.5 -58.5s-58.5 -86.167 -58.5 -141.5v-199c0 -55.333 19.5 -102.5 58.5 -141.5s86.167 -58.5 141.5 -58.5v-1c55.333 0 102.5 19.5 141.5 58.5s58.5 86.167 58.5 141.5v199c0 55.333 -19.5 102.5 -58.5 141.5
s-86.167 58.5 -141.5 58.5v1zM400 1c-110.667 0 -205 39 -283 117s-117 172 -117 282v200c0 110.667 39 205 117 283s172.333 117 283 117v-1c110.667 0 205 -39 283 -117s117 -172.333 117 -283v-200c-0.666992 -110.667 -39.667 -204.667 -117 -282
c-78 -78 -172.333 -117 -283 -117v1zM600 1500l-100 -300h-200l100 300h200z" />
    <glyph glyph-name="ocircumflex" unicode="&#xf4;" 
d="M400 800c-55.333 0 -102.5 -19.5 -141.5 -58.5s-58.5 -86.167 -58.5 -141.5v-199c0 -55.333 19.5 -102.5 58.5 -141.5s86.167 -58.5 141.5 -58.5v-1c55.333 0 102.5 19.5 141.5 58.5s58.5 86.167 58.5 141.5v199c0 55.333 -19.5 102.5 -58.5 141.5
s-86.167 58.5 -141.5 58.5v1zM400 1c-110.667 0 -205 39 -283 117s-117 172 -117 282v200c0 110.667 39 205 117 283s172.333 117 283 117v-1c110.667 0 205 -39 283 -117s117 -172.333 117 -283v-200c-0.666992 -110.667 -39.667 -204.667 -117 -282
c-78 -78 -172.333 -117 -283 -117v1zM200 1200l100 300h200l100 -300h-400z" />
    <glyph glyph-name="otilde" unicode="&#xf5;" 
d="M400 800c-55.333 0 -102.5 -19.5 -141.5 -58.5s-58.5 -86.167 -58.5 -141.5v-199c0 -55.333 19.5 -102.5 58.5 -141.5s86.167 -58.5 141.5 -58.5v-1c55.333 0 102.5 19.5 141.5 58.5s58.5 86.167 58.5 141.5v199c0 55.333 -19.5 102.5 -58.5 141.5
s-86.167 58.5 -141.5 58.5v1zM400 1c-110.667 0 -205 39 -283 117s-117 172 -117 282v200c0 110.667 39 205 117 283s172.333 117 283 117v-1c110.667 0 205 -39 283 -117s117 -172.333 117 -283v-200c-0.666992 -110.667 -39.667 -204.667 -117 -282
c-78 -78 -172.333 -117 -283 -117v1zM200 1450c66.667 66.667 133.334 66.667 200.001 0s133.334 -66.667 200.001 0v-200c-66.667 -66.667 -133.334 -66.667 -200.001 0s-133.334 66.667 -200.001 0v200z" />
    <glyph glyph-name="odieresis" unicode="&#xf6;" 
d="M400 800c-55.333 0 -102.5 -19.5 -141.5 -58.5s-58.5 -86.167 -58.5 -141.5v-199c0 -55.333 19.5 -102.5 58.5 -141.5s86.167 -58.5 141.5 -58.5v-1c55.333 0 102.5 19.5 141.5 58.5s58.5 86.167 58.5 141.5v199c0 55.333 -19.5 102.5 -58.5 141.5
s-86.167 58.5 -141.5 58.5v1zM400 1c-110.667 0 -205 39 -283 117s-117 172 -117 282v200c0 110.667 39 205 117 283s172.333 117 283 117v-1c110.667 0 205 -39 283 -117s117 -172.333 117 -283v-200c-0.666992 -110.667 -39.667 -204.667 -117 -282
c-78 -78 -172.333 -117 -283 -117v1zM300 1300c0 -27.333 -9.83301 -50.833 -29.5 -70.5s-43.167 -29.5 -70.5 -29.5s-50.833 9.83301 -70.5 29.5s-29.5 43.167 -29.5 70.5s9.83301 50.833 29.5 70.5s43.167 29.5 70.5 29.5s50.833 -9.83301 70.5 -29.5
s29.5 -43.167 29.5 -70.5zM700 1300c0 -27.333 -9.83301 -50.833 -29.5 -70.5s-43.167 -29.5 -70.5 -29.5s-50.833 9.83301 -70.5 29.5s-29.5 43.167 -29.5 70.5s9.83301 50.833 29.5 70.5s43.167 29.5 70.5 29.5s50.833 -9.83301 70.5 -29.5s29.5 -43.167 29.5 -70.5z" />
    <glyph glyph-name="divide" unicode="&#xf7;" 
d="M800 800v-200h-800v200h800zM500 1100c0 -27.333 -9.83301 -50.833 -29.5 -70.5s-43.167 -29.5 -70.5 -29.5s-50.833 9.83301 -70.5 29.5s-29.5 43.167 -29.5 70.5s9.83301 50.833 29.5 70.5s43.167 29.5 70.5 29.5s50.833 -9.83301 70.5 -29.5s29.5 -43.167 29.5 -70.5z
M500 300c0 -27.333 -9.83301 -50.833 -29.5 -70.5s-43.167 -29.5 -70.5 -29.5s-50.833 9.83301 -70.5 29.5s-29.5 43.167 -29.5 70.5s9.83301 50.833 29.5 70.5s43.167 29.5 70.5 29.5s50.833 -9.83301 70.5 -29.5s29.5 -43.167 29.5 -70.5z" />
    <glyph glyph-name="oslash" unicode="&#xf8;" 
d="M554 1100l-21 -123c55.333 -18.667 105.333 -50.334 150 -95.001c78 -78 117 -172.333 117 -283v-200c-0.666992 -110.667 -39.667 -204.667 -117 -282c-78 -78 -172.333 -117 -283 -117v1c-10 0 -19.667 0.333008 -29 1l-17 -102h-100l20 120
c-58 18.667 -110.333 51.334 -157 98.001c-78 78 -117 172 -117 282v200c0 110.667 39 205 117 283s172.333 117 283 117v-1c12.667 0 25 -0.666992 37 -2l17 103h100zM400 800c-55.333 0 -102.5 -19.502 -141.5 -58.502s-58.5 -86.167 -58.5 -141.5v-199
c0 -55.333 19.333 -102.666 58 -141.999c15.333 -15.333 32 -27.666 50 -36.999l96 577h-4v1zM541 257.998c39.333 39.333 59 86.667 59 142v199c0 55.333 -19.667 102.333 -59 141c-12.667 13.333 -26.667 24.333 -42 33l-95 -573c53.333 0.666992 99 20 137 58z" />
    <glyph glyph-name="ugrave" unicode="&#xf9;" horiz-adv-x="1001" 
d="M1 401v598.001h200v-599h-1c0 -54.667 19.667 -101.334 59 -140.001c38.667 -39.333 85.667 -59 141 -59v-1c55.333 0 102.5 19.5 141.5 58.5s58.5 86.167 58.5 141.5h1v600h200v-1000h-200v53c-59.333 -35.333 -126.333 -53 -201 -53v1c-110.667 0 -205 39 -283 117
s-117 172.333 -117 283h1zM400 1500l100 -300h-200l-100 300h200z" />
    <glyph glyph-name="uacute" unicode="&#xfa;" horiz-adv-x="1001" 
d="M1 401v598.001h200v-599h-1c0 -54.667 19.667 -101.334 59 -140.001c38.667 -39.333 85.667 -59 141 -59v-1c55.333 0 102.5 19.5 141.5 58.5s58.5 86.167 58.5 141.5h1v600h200v-1000h-200v53c-59.333 -35.333 -126.333 -53 -201 -53v1c-110.667 0 -205 39 -283 117
s-117 172.333 -117 283h1zM600 1500l-100 -300h-200l100 300h200z" />
    <glyph glyph-name="ucircumflex" unicode="&#xfb;" horiz-adv-x="1001" 
d="M1 401v598.001h200v-599h-1c0 -54.667 19.667 -101.334 59 -140.001c38.667 -39.333 85.667 -59 141 -59v-1c55.333 0 102.5 19.5 141.5 58.5s58.5 86.167 58.5 141.5h1v600h200v-1000h-200v53c-59.333 -35.333 -126.333 -53 -201 -53v1c-110.667 0 -205 39 -283 117
s-117 172.333 -117 283h1zM200 1200l100 300h200l100 -300h-400z" />
    <glyph glyph-name="udieresis" unicode="&#xfc;" horiz-adv-x="1001" 
d="M1 401v598.001h200v-599h-1c0 -54.667 19.667 -101.334 59 -140.001c38.667 -39.333 85.667 -59 141 -59v-1c55.333 0 102.5 19.5 141.5 58.5s58.5 86.167 58.5 141.5h1v600h200v-1000h-200v53c-59.333 -35.333 -126.333 -53 -201 -53v1c-110.667 0 -205 39 -283 117
s-117 172.333 -117 283h1zM300 1300c0 -27.333 -9.83301 -50.833 -29.5 -70.5s-43.167 -29.5 -70.5 -29.5s-50.833 9.83301 -70.5 29.5s-29.5 43.167 -29.5 70.5s9.83301 50.833 29.5 70.5s43.167 29.5 70.5 29.5s50.833 -9.83301 70.5 -29.5s29.5 -43.167 29.5 -70.5z
M700 1300c0 -27.333 -9.83301 -50.833 -29.5 -70.5s-43.167 -29.5 -70.5 -29.5s-50.833 9.83301 -70.5 29.5s-29.5 43.167 -29.5 70.5s9.83301 50.833 29.5 70.5s43.167 29.5 70.5 29.5s50.833 -9.83301 70.5 -29.5s29.5 -43.167 29.5 -70.5z" />
    <glyph glyph-name="yacute" unicode="&#xfd;" horiz-adv-x="1001" 
d="M400 -200c56 0 103.5 19.5 142.5 58.5s58.5 86.167 58.5 141.5h-1v53c-59.333 -34.667 -125.666 -52 -198.999 -52v-1c-110.667 0 -205 39 -283 117s-117 172.333 -117 283l-1 600h200l1 -600c0 -55.333 19.5 -102.5 58.5 -141.5s86.167 -58.5 141.5 -58.5v1
c55.333 0 102.666 19.667 141.999 59c33.333 33.333 52.333 73.333 57 120v620h200v-400h1v-200c0 -10 -0.333008 -19.667 -1 -29v-371h1c0 -110.667 -39 -205 -117 -283s-172.667 -117 -284 -117h-300v200h300zM600 1500l-100 -300h-200l100 300h200z" />
    <glyph glyph-name="thorn" unicode="&#xfe;" 
d="M600 401v199c0 55.333 -19.5 102.5 -58.5 141.5s-86.167 58.5 -141.5 58.5h-200v-600h200v1c55.333 0 102.5 19.5 141.5 58.5s58.5 86.167 58.5 141.5zM800 400c0 -110 -39 -204 -117 -282s-172.333 -117 -283 -117v-1h-200v-400h-200v1800h200v-400h200
c110.667 0 205 -39 283 -117s117 -172.333 117 -283v-200z" />
    <glyph glyph-name="ydieresis" unicode="&#xff;" horiz-adv-x="1001" 
d="M400 -200c56 0 103.5 19.5 142.5 58.5s58.5 86.167 58.5 141.5h-1v53c-59.333 -34.667 -125.666 -52 -198.999 -52v-1c-110.667 0 -205 39 -283 117s-117 172.333 -117 283l-1 600h200l1 -600c0 -55.333 19.5 -102.5 58.5 -141.5s86.167 -58.5 141.5 -58.5v1
c55.333 0 102.666 19.667 141.999 59c33.333 33.333 52.333 73.333 57 120v620h200v-400h1v-200c0 -10 -0.333008 -19.667 -1 -29v-371h1c0 -110.667 -39 -205 -117 -283s-172.667 -117 -284 -117h-300v200h300zM300 1300c0 -27.333 -9.83301 -50.833 -29.5 -70.5
s-43.167 -29.5 -70.5 -29.5s-50.833 9.83301 -70.5 29.5s-29.5 43.167 -29.5 70.5s9.83301 50.833 29.5 70.5s43.167 29.5 70.5 29.5s50.833 -9.83301 70.5 -29.5s29.5 -43.167 29.5 -70.5zM700 1300c0 -27.333 -9.83301 -50.833 -29.5 -70.5s-43.167 -29.5 -70.5 -29.5
s-50.833 9.83301 -70.5 29.5s-29.5 43.167 -29.5 70.5s9.83301 50.833 29.5 70.5s43.167 29.5 70.5 29.5s50.833 -9.83301 70.5 -29.5s29.5 -43.167 29.5 -70.5z" />
    <glyph glyph-name="uni0152" unicode="&#x152;" horiz-adv-x="1600" 
d="M1400 1400v-200h-600v-400h399v-200h-399v-400h600v-200h-800v52c-59.333 -34.667 -126 -52 -200 -52c-110.667 0 -205 39 -283 117s-117 172.333 -117 283v600c0 110.667 39 205 117 283s172.333 117 283 117c74 0 140.667 -17.667 200 -53v53h800zM600 1000
c0 55.333 -19.5 102.501 -58.5 141.501s-86.167 58.5 -141.5 58.5s-102.5 -19.5 -141.5 -58.5s-58.5 -86.167 -58.5 -141.5v-600c0 -55.333 19.5 -102.5 58.5 -141.5s86.167 -58.5 141.5 -58.5s102.333 19.333 141 58c37.333 37.333 57 81.666 59 132.999v609z" />
    <glyph glyph-name="uni0153" unicode="&#x153;" horiz-adv-x="1600" 
d="M1000 200h300v-200h-300v1c-110.667 0 -205 39 -283 117c-6 5.33301 -11.667 11 -17 17c-5.33301 -6 -11 -12 -17 -18c-78 -78 -172.333 -117 -283 -117v1c-110.667 0 -205 39 -283 117s-117 172 -117 282v200c0 110.667 39 205 117 283s172.333 117 283 117v-1
c110.667 0 205 -39 283 -117l16 -18c6 6.66699 12 13 18 19c78 78 172.333 117 283 117s205 -39 283 -117s117 -172.333 117 -283v-200h-600v-1c0 -54.667 19.667 -101 59 -139c38.667 -39.333 85.667 -59 141 -59v-1zM400 800c-55.333 0 -102.5 -19.5 -141.5 -58.5
s-58.5 -86.167 -58.5 -141.5v-199c0 -55.333 19.5 -102.5 58.5 -141.5s86.167 -58.5 141.5 -58.5v-1c55.333 0 102.5 19.5 141.5 58.5s58.5 86.167 58.5 141.5v200v7c-2 52 -21.667 96.333 -59 133c-38.667 39.333 -85.667 59 -141 59v1zM800 600h399.998
c0 55.333 -19.5 102.5 -58.5 141.5s-86.167 58.5 -141.5 58.5s-102.666 -19.667 -141.999 -59c-37.333 -37.333 -56.666 -82 -57.999 -134v-7z" />
    <glyph glyph-name="uni0160" unicode="&#x160;" horiz-adv-x="1001" 
d="M400 0c-110.667 0 -205 39 -283 117s-117 172.333 -117 283h200c0 -55.333 19.5 -102.5 58.5 -141.5s86.167 -58.5 141.5 -58.5s102.5 19.5 141.5 58.5s58.5 86.167 58.5 141.5h1c0 55.333 -19.5 102.5 -58.5 141.5s-86.167 58.5 -141.5 58.5
c-110.667 0 -205 39 -283 117s-117 172.333 -117 283h-1c0 110.667 39 205 117 283s172.333 117 283 117s205 -39 283 -117s117 -172.333 117 -283h-200c0 55.333 -19.5 102.5 -58.5 141.5s-86.167 58.5 -141.5 58.5s-102.5 -19.5 -141.5 -58.5s-58.5 -86.167 -58.5 -141.5
h1c0 -55.333 19.5 -102.5 58.5 -141.5s86.167 -58.5 141.5 -58.5c110.667 0 205 -39 283 -117s117 -172.333 117 -283h-1c0 -110.667 -39 -205 -117 -283s-172.333 -117 -283 -117zM600 1900l-100 -300h-200l-100 300h400z" />
    <glyph glyph-name="uni0161" unicode="&#x161;" 
d="M800 1000v-200h-400c-55.333 0 -102.5 -19.5 -141.5 -58.5s-58.5 -86.167 -58.5 -141.5h600v-200c0 -110.667 -39 -205 -117 -283s-172.333 -117 -283 -117h-400v200h400c55.333 0 102.5 19.5 141.5 58.5s58.5 86.167 58.5 141.5h-600v200c0 110.667 39 205 117 283
s172.333 117 283 117h400zM600 1500l-100 -300h-200l-100 300h400z" />
    <glyph glyph-name="uni0178" unicode="&#x178;" 
d="M300 700l-300 700h200l200 -467l200 467h200l-300 -700v-700h-200v700zM300 1700c0 -27.333 -9.83301 -50.833 -29.5 -70.5s-43.167 -29.5 -70.5 -29.5s-50.833 9.83301 -70.5 29.5s-29.5 43.167 -29.5 70.5s9.83301 50.833 29.5 70.5s43.167 29.5 70.5 29.5
s50.833 -9.83301 70.5 -29.5s29.5 -43.167 29.5 -70.5zM700 1700c0 -27.333 -9.83301 -50.833 -29.5 -70.5s-43.167 -29.5 -70.5 -29.5s-50.833 9.83301 -70.5 29.5s-29.5 43.167 -29.5 70.5s9.83301 50.833 29.5 70.5s43.167 29.5 70.5 29.5s50.833 -9.83301 70.5 -29.5
s29.5 -43.167 29.5 -70.5z" />
    <glyph glyph-name="uni017D" unicode="&#x17d;" 
d="M800 200v-200h-800l514 1200h-514v200h800l-515 -1200h515zM600 1900l-100 -300h-200l-100 300h400z" />
    <glyph glyph-name="uni017E" unicode="&#x17e;" 
d="M800 200v-200h-800l449 800h-449v200h800l-454 -800h454zM600 1500l-100 -300h-200l-100 300h400z" />
    <glyph glyph-name="uni0192" unicode="&#x192;" horiz-adv-x="900" 
d="M200 800h-100v200h100c0 110.667 39 205 117 283s172.333 117 283 117h100v-200h-100c-55.333 0 -102.5 -19.5 -141.5 -58.5s-58.5 -86.167 -58.5 -141.5h200v-200h-200v-800c0 -110.667 -39 -205 -117 -283s-172.333 -117 -283 -117v200c55.333 0 102.5 19.5 141.5 58.5
s58.5 86.167 58.5 141.5v800z" />
    <glyph glyph-name="uni02C6" unicode="&#x2c6;" 
d="M0 800l400 600l400 -600h-200l-200 300l-200 -300h-200z" />
    <glyph glyph-name="uni02DC" unicode="&#x2dc;" horiz-adv-x="600" 
d="M0 1350c66.667 66.667 133.334 66.667 200.001 0s133.334 -66.667 200.001 0v-200c-66.667 -66.667 -133.334 -66.667 -200.001 0s-133.334 66.667 -200.001 0v200z" />
    <glyph glyph-name="uni0401" unicode="&#x401;" 
d="M800 1400v-200h-600v-400h399v-200h-399v-400h600v-200h-800v1400h800zM300 1700c0 -27.333 -9.83301 -50.833 -29.5 -70.5s-43.167 -29.5 -70.5 -29.5s-50.833 9.83301 -70.5 29.5s-29.5 43.167 -29.5 70.5s9.83301 50.833 29.5 70.5s43.167 29.5 70.5 29.5
s50.833 -9.83301 70.5 -29.5s29.5 -43.167 29.5 -70.5zM700 1700c0 -27.333 -9.83301 -50.833 -29.5 -70.5s-43.167 -29.5 -70.5 -29.5s-50.833 9.83301 -70.5 29.5s-29.5 43.167 -29.5 70.5s9.83301 50.833 29.5 70.5s43.167 29.5 70.5 29.5s50.833 -9.83301 70.5 -29.5
s29.5 -43.167 29.5 -70.5z" />
    <glyph glyph-name="uni0402" unicode="&#x402;" horiz-adv-x="1200" 
d="M0 1400h700v-200h-300v-200h200c110.667 0 205 -39 283 -117s117 -172.333 117 -283v-199c0 -110.667 -39 -205 -117 -283s-172.333 -117 -283 -117v200c55.333 0 102.5 19.5 141.5 58.5s58.5 86.167 58.5 141.5v199c0 55.333 -19.5 102.5 -58.5 141.5
s-86.167 58.5 -141.5 58.5h-200v-800h-200v1200h-200v200z" />
    <glyph glyph-name="uni0403" unicode="&#x403;" 
d="M0 0h200v1200h600v200h-800v-1400zM600 1900l-100 -300h-200l100 300h200z" />
    <glyph glyph-name="uni0404" unicode="&#x404;" 
d="M500 600h-300v-200c0 -55.333 19.5 -102.5 58.5 -141.5s86.167 -58.5 141.5 -58.5s102.5 19.5 141.5 58.5s58.5 86.167 58.5 141.5h200c0 -110.667 -39 -205 -117 -283s-172.333 -117 -283 -117s-205 39 -283 117s-117 172.333 -117 283v600c0 110.667 39 205 117 283
s172.333 117 283 117s205 -39 283 -117s117 -172.333 117 -283h-200c0 55.333 -19.5 102.5 -58.5 141.5s-86.167 58.5 -141.5 58.5s-102.5 -19.5 -141.5 -58.5s-58.5 -86.167 -58.5 -141.5v-200h300v-200z" />
    <glyph glyph-name="uni0405" unicode="&#x405;" horiz-adv-x="1001" 
d="M400 0c-110.667 0 -205 39 -283 117s-117 172.333 -117 283h200c0 -55.333 19.5 -102.5 58.5 -141.5s86.167 -58.5 141.5 -58.5s102.5 19.5 141.5 58.5s58.5 86.167 58.5 141.5h1c0 55.333 -19.5 102.5 -58.5 141.5s-86.167 58.5 -141.5 58.5
c-110.667 0 -205 39 -283 117s-117 172.333 -117 283h-1c0 110.667 39 205 117 283s172.333 117 283 117s205 -39 283 -117s117 -172.333 117 -283h-200c0 55.333 -19.5 102.5 -58.5 141.5s-86.167 58.5 -141.5 58.5s-102.5 -19.5 -141.5 -58.5s-58.5 -86.167 -58.5 -141.5
h1c0 -55.333 19.5 -102.5 58.5 -141.5s86.167 -58.5 141.5 -58.5c110.667 0 205 -39 283 -117s117 -172.333 117 -283h-1c0 -110.667 -39 -205 -117 -283s-172.333 -117 -283 -117z" />
    <glyph glyph-name="uni0406" unicode="&#x406;" horiz-adv-x="400" 
d="M200 1400v-1400h-200v1400h200z" />
    <glyph glyph-name="uni0407" unicode="&#x407;" horiz-adv-x="800" 
d="M400 1400v-1400h-200v1400h200zM200 1700c0 -27.333 -9.83301 -50.833 -29.5 -70.5s-43.167 -29.5 -70.5 -29.5s-50.833 9.83301 -70.5 29.5s-29.5 43.167 -29.5 70.5s9.83301 50.833 29.5 70.5s43.167 29.5 70.5 29.5s50.833 -9.83301 70.5 -29.5
s29.5 -43.167 29.5 -70.5zM600 1700c0 -27.333 -9.83301 -50.833 -29.5 -70.5s-43.167 -29.5 -70.5 -29.5s-50.833 9.83301 -70.5 29.5s-29.5 43.167 -29.5 70.5s9.83301 50.833 29.5 70.5s43.167 29.5 70.5 29.5s50.833 -9.83301 70.5 -29.5s29.5 -43.167 29.5 -70.5z" />
    <glyph glyph-name="uni0408" unicode="&#x408;" 
d="M600 399l-0.000976562 1001h200v-1000c0 -110.667 -39 -205 -117 -283s-172.333 -117 -283 -117s-205 39 -283 117s-117 172.333 -117 283h200c0 -55.333 19.5 -102.5 58.5 -141.5s86.167 -58.5 141.5 -58.5s102.333 19.333 141 58s58.334 85.667 59.001 141z" />
    <glyph glyph-name="uni0409" unicode="&#x409;" horiz-adv-x="1600" 
d="M0 1000c0 110.667 39 205 117 283s172.333 117 283 117c74 0 140.667 -17.667 200 -53v53h200v-392v-8v-200h200c110.667 0 205 -39 283 -117s117 -172.333 117 -283s-39 -205 -117 -283s-172.333 -117 -283 -117h-400v1000c0 55.333 -19.5 102.5 -58.5 141.5
s-86.167 58.5 -141.5 58.5s-102.5 -19.5 -141.5 -58.5s-58.5 -86.167 -58.5 -141.5v-1000h-200v1000zM1200 400c0 55.333 -19.5 102.5 -58.5 141.5s-86.167 58.5 -141.5 58.5h-200v-400h200c55.333 0 102.5 19.5 141.5 58.5s58.5 86.167 58.5 141.5z" />
    <glyph glyph-name="uni040A" unicode="&#x40a;" horiz-adv-x="1600" 
d="M600 600h-400v-600h-200v1400h200v-600h400v600h200v-600h200c110.667 0 205 -39 283 -117s117 -172.333 117 -283s-39 -205 -117 -283s-172.333 -117 -283 -117h-400v600zM1200 400c0 55.333 -19.5 102.5 -58.5 141.5s-86.167 58.5 -141.5 58.5h-200v-400h200
c55.333 0 102.5 19.5 141.5 58.5s58.5 86.167 58.5 141.5z" />
    <glyph glyph-name="uni040B" unicode="&#x40b;" horiz-adv-x="1200" 
d="M0 1400h700v-200h-300v-253c59.333 35.333 126 53 200 53c110.667 0 205 -39 283 -117s117 -172.667 117 -284v-599h-200v599c0 56 -19.5 103.5 -58.5 142.5s-86.167 58.5 -141.5 58.5s-102.5 -19.5 -141.5 -58.5s-58.5 -86.167 -58.5 -141.5v-600h-200v1200h-200v200z
" />
    <glyph glyph-name="uni040C" unicode="&#x40c;" 
d="M200 700l300 701h200l-300 -701l400 -700h-200l-400 700v-700h-200v1400h200v-700zM600 1900l-100 -300h-200l100 300h200z" />
    <glyph glyph-name="uni040E" unicode="&#x40e;" 
d="M300 700l-300 700h200l200 -467l200 467h200l-300 -700v-700h-200v700zM601 1900l-100 -300h-200l-100 300h400z" />
    <glyph glyph-name="uni040F" unicode="&#x40f;" 
d="M300 0h-300v1400h200v-1200h400v1200h200v-1400h-300v-200h-200v200z" />
    <glyph glyph-name="uni0410" unicode="&#x410;" 
d="M600 600h-400v-599h-200v999c0 110.667 39 205 117 283s172.333 117 283 117s205 -39 283 -117s117 -172.333 117 -283v-1000h-200v600zM600 1000c0 55.333 -19.5 102.5 -58.5 141.5s-86.167 58.5 -141.5 58.5s-102.5 -19.5 -141.5 -58.5s-58.5 -86.167 -58.5 -141.5
v-200h400v200z" />
    <glyph glyph-name="uni0411" unicode="&#x411;" 
d="M700 1400v-200h-500v-400h200c110.667 0 205 -39 283 -117s117 -172.333 117 -283s-39 -205 -117 -283s-172.333 -117 -283 -117h-400v1400h700zM400 600h-200v-400h200c55.333 0 102.5 19.5 141.5 58.5s58.5 86.167 58.5 141.5s-19.5 102.5 -58.5 141.5
s-86.167 58.5 -141.5 58.5z" />
    <glyph glyph-name="uni0412" unicode="&#x412;" 
d="M0 1400l300 0.000976562c110.667 0 205 -39 283 -117s117 -172.333 117 -283c0 -98.667 -31 -184.334 -93 -257.001c26.667 -16 52 -36 76 -60c78 -78 117 -172.333 117 -283s-39 -205 -117 -283s-172.333 -117 -283 -117h-400v1400zM400 600.001h-92h-8h-100v-400h200
c55.333 0 102.5 19.5 141.5 58.5s58.5 86.167 58.5 141.5s-19.5 102.5 -58.5 141.5s-86.167 58.5 -141.5 58.5zM300 1200h-100v-400h100c55.333 0 102.5 19.5 141.5 58.5s58.5 86.167 58.5 141.5s-19.5 102.5 -58.5 141.5s-86.167 58.5 -141.5 58.5z" />
    <glyph glyph-name="uni0413" unicode="&#x413;" 
d="M0 1400h800v-200h-600v-1200h-200v1400z" />
    <glyph glyph-name="uni0414" unicode="&#x414;" horiz-adv-x="1400" 
d="M317 1283c78 78 172.333 117 283 117s205 -39 283 -117s117 -172.333 117 -283v-800h200v-400h-200v200h-800v-200h-200v400h200v800c0 110.667 39 205 117 283zM800 1000c0 55.333 -19.5 102.5 -58.5 141.5s-86.167 58.5 -141.5 58.5s-102.5 -19.5 -141.5 -58.5
s-58.5 -86.167 -58.5 -141.5v-800h400v800z" />
    <glyph glyph-name="uni0415" unicode="&#x415;" 
d="M800 1400v-200h-600v-400h399v-200h-399v-400h600v-200h-800v1400h800z" />
    <glyph glyph-name="uni0416" unicode="&#x416;" horiz-adv-x="1600" 
d="M200 1400l171 -600h229v600h200v-600h228l172 600h200l-200 -700l200 -700h-200l-172 600h-228v-600h-200v600h-229l-171 -600h-200l200 700l-200 700h200z" />
    <glyph glyph-name="uni0417" unicode="&#x417;" 
d="M400 1c-110.667 0 -205 39 -283 117s-117 172.333 -117 283h200c0 -55.333 19.5 -102.5 58.5 -141.5s86.167 -58.5 141.5 -58.5v-1c55.333 0 102.5 19.5 141.5 58.5s58.5 86.167 58.5 141.5s-19.5 102.5 -58.5 141.5s-86.167 58.5 -141.5 58.5h-200v200h200
c55.333 0 102.5 19.5 141.5 58.5s58.5 86.167 58.5 141.5s-19.5 102.5 -58.5 141.5s-86.167 58.5 -141.5 58.5s-102.5 -19.5 -141.5 -58.5s-58.5 -86.167 -58.5 -141.5h-200c0 110.667 39 205 117 283s172.333 117 283 117s205 -39 283 -117s117 -172.333 117 -283
s-39 -205 -117 -283c-6 -6 -12 -11.667 -18 -17c6 -5.33301 12 -11 18 -17c78 -78 117 -172.333 117 -283s-39 -205 -117 -283s-172.333 -117 -283 -117v1z" />
    <glyph glyph-name="uni0418" unicode="&#x418;" 
d="M200 0h-200v1400h200v-933l400 933h200v-1400h-200v933z" />
    <glyph glyph-name="uni0419" unicode="&#x419;" 
d="M200 0h-200v1400h200v-933l400 933h200v-1400h-200v933zM601 1900l-100 -300h-200l-100 300h400z" />
    <glyph glyph-name="uni041A" unicode="&#x41a;" 
d="M200 700l300 701h200l-300 -701l400 -700h-200l-400 700v-700h-200v1400h200v-700z" />
    <glyph glyph-name="uni041B" unicode="&#x41b;" 
d="M0 800v200c0 110.667 39 205 117 283s172.333 117 283 117s205 -39 283 -117s117 -172.333 117 -283v-1000h-200v1000c0 55.333 -19.5 102.5 -58.5 141.5s-86.167 58.5 -141.5 58.5s-102.5 -19.5 -141.5 -58.5s-58.5 -86.167 -58.5 -141.5v-1000h-200v800z" />
    <glyph glyph-name="uni041C" unicode="&#x41c;" 
d="M800 1400v-1400h-200v933l-200 -466l-200 466v-933h-200v1400h200l200 -467l200 467h200z" />
    <glyph glyph-name="uni041D" unicode="&#x41d;" 
d="M800 1400v-1400h-200v600h-400v-600h-200v1400h200v-600h400v600h200z" />
    <glyph glyph-name="uni041E" unicode="&#x41e;" 
d="M800 400c0 -110.667 -39 -205 -117 -283s-172.333 -117 -283 -117s-205 39 -283 117s-117 172.333 -117 283v600c0 110.667 39 205 117 283s172.333 117 283 117s205 -39 283 -117s117 -172.333 117 -283v-600zM600 1000c0 55.333 -19.5 102.5 -58.5 141.5
s-86.167 58.5 -141.5 58.5s-102.5 -19.5 -141.5 -58.5s-58.5 -86.167 -58.5 -141.5v-600c0 -55.333 19.5 -102.5 58.5 -141.5s86.167 -58.5 141.5 -58.5s102.5 19.5 141.5 58.5s58.5 86.167 58.5 141.5v600z" />
    <glyph glyph-name="uni041F" unicode="&#x41f;" 
d="M600 1200h-400v-1200h-200v1400h800v-1400h-200v1200z" />
    <glyph glyph-name="uni0420" unicode="&#x420;" 
d="M200 1400h200c110.667 0 205 -39 283 -117s117 -172.333 117 -283s-39 -205 -117 -283s-172.333 -117 -283 -117h-200v-600h-200v1400h200zM600 1000c0 55.333 -19.5 102.5 -58.5 141.5s-86.167 58.5 -141.5 58.5h-200v-400h200c55.333 0 102.5 19.5 141.5 58.5
s58.5 86.167 58.5 141.5z" />
    <glyph glyph-name="uni0421" unicode="&#x421;" 
d="M400 200c55.333 0 102.5 19.5 141.5 58.5s58.5 86.167 58.5 141.5h200c0 -110.667 -39 -205 -117 -283s-172.333 -117 -283 -117s-205 39 -283 117s-117 172.333 -117 283v600c0 110.667 39 205 117 283s172.333 117 283 117s205 -39 283 -117s117 -172.333 117 -283
h-200c0 55.333 -19.5 102.5 -58.5 141.5s-86.167 58.5 -141.5 58.5s-102.5 -19.5 -141.5 -58.5s-58.5 -86.167 -58.5 -141.5v-600c0 -55.333 19.5 -102.5 58.5 -141.5s86.167 -58.5 141.5 -58.5z" />
    <glyph glyph-name="uni0422" unicode="&#x422;" 
d="M800 1400v-200h-300v-1200h-200v1200h-300v200h800z" />
    <glyph glyph-name="uni0423" unicode="&#x423;" 
d="M0 1400l200 0.000976562v-400c0 -55.333 19.5 -102.5 58.5 -141.5s86.167 -58.5 141.5 -58.5s102.333 19.333 141 58c37.333 37.333 57 81.666 59 132.999v409h200v-1000c0 -110.667 -39 -205 -117 -283s-172.333 -117 -283 -117s-205 39 -283 117s-117 172.333 -117 283
h200c0 -55.333 19.5 -102.5 58.5 -141.5s86.167 -58.5 141.5 -58.5s102.5 19.5 141.5 58.5s58.5 86.167 58.5 141.5v252c-59.333 -34.667 -126 -52 -200 -52c-110.667 0 -205 39 -283 117s-117 172.333 -117 283v400z" />
    <glyph glyph-name="uni0424" unicode="&#x424;" horiz-adv-x="1600" 
d="M400 1400h600c110.667 0 205 -39 283 -117s117 -172.333 117 -283s-39 -205 -117 -283s-172.333 -117 -283 -117h-200v-600h-200v600h-200c-110.667 0 -205 39 -283 117s-117 172.333 -117 283s39 205 117 283s172.333 117 283 117zM1200 1000
c0 55.333 -19.5 102.5 -58.5 141.5s-86.167 58.5 -141.5 58.5h-200v-400h200c55.333 0 102.5 19.5 141.5 58.5s58.5 86.167 58.5 141.5zM200 1000c0 -55.333 19.5 -102.5 58.5 -141.5s86.167 -58.5 141.5 -58.5h200v400h-200c-55.333 0 -102.5 -19.5 -141.5 -58.5
s-58.5 -86.167 -58.5 -141.5z" />
    <glyph glyph-name="uni0425" unicode="&#x425;" 
d="M200 1400l200 -467l200 467h200l-300 -700l300 -700h-200l-200 466l-200 -466h-200l300 700l-300 700h200z" />
    <glyph glyph-name="uni0426" unicode="&#x426;" horiz-adv-x="1200" 
d="M800 0h-800v1400h200v-1200h400v1200h200v-1200h200v-400h-200v200z" />
    <glyph glyph-name="uni0427" unicode="&#x427;" 
d="M600 550v102.001c-59.333 -34.667 -126 -52 -200 -52c-110.667 0 -205 39 -283 117s-117 172.333 -117 283v400h200v-400c0 -55.333 19.5 -102.5 58.5 -141.5s86.167 -58.5 141.5 -58.5s102.333 19.333 141 58c37.333 37.333 57 81.666 59 132.999v409h200v-1400h-200
v550z" />
    <glyph glyph-name="uni0428" unicode="&#x428;" horiz-adv-x="1600" 
d="M1200 1400h200v-1400h-1400v1400h200v-1200h400v1200h200v-1200h400v1200z" />
    <glyph glyph-name="uni0429" unicode="&#x429;" horiz-adv-x="1800" 
d="M1400 200h200v-400h-200v200h-1400v1400h200v-1200h400v1200h200v-1200h400v1200h200v-1200z" />
    <glyph glyph-name="uni042A" unicode="&#x42a;" horiz-adv-x="1200" 
d="M0 1400h400v-600h200c110.667 0 205 -39 283 -117s117 -172.333 117 -283s-39 -205 -117 -283s-172.333 -117 -283 -117h-400v1200h-200v200zM800 400c0 55.333 -19.5 102.5 -58.5 141.5s-86.167 58.5 -141.5 58.5h-200v-400h200c55.333 0 102.5 19.5 141.5 58.5
s58.5 86.167 58.5 141.5z" />
    <glyph glyph-name="uni042B" unicode="&#x42b;" horiz-adv-x="1400" 
d="M0 0v1400h200v-600h200c110.667 0 205 -39 283 -117s117 -172.333 117 -283s-39 -205 -117 -283s-172.333 -117 -283 -117h-200h-200zM600 400c0 55.333 -19.5 102.5 -58.5 141.5s-86.167 58.5 -141.5 58.5h-200v-400h200c55.333 0 102.5 19.5 141.5 58.5
s58.5 86.167 58.5 141.5zM1000 1400h200v-1400h-200v1400z" />
    <glyph glyph-name="uni042C" unicode="&#x42c;" 
d="M0 0v1400h200v-600h200c110.667 0 205 -39 283 -117s117 -172.333 117 -283s-39 -205 -117 -283s-172.333 -117 -283 -117h-200h-200zM600 400c0 55.333 -19.5 102.5 -58.5 141.5s-86.167 58.5 -141.5 58.5h-200v-400h200c55.333 0 102.5 19.5 141.5 58.5
s58.5 86.167 58.5 141.5z" />
    <glyph glyph-name="uni042D" unicode="&#x42d;" 
d="M300 800h300v200c0 55.333 -19.5 102.5 -58.5 141.5s-86.167 58.5 -141.5 58.5s-102.5 -19.5 -141.5 -58.5s-58.5 -86.167 -58.5 -141.5h-200c0 110.667 39 205 117 283s172.333 117 283 117s205 -39 283 -117s117 -172.333 117 -283v-600c0 -110.667 -39 -205 -117 -283
s-172.333 -117 -283 -117s-205 39 -283 117s-117 172.333 -117 283h200c0 -55.333 19.5 -102.5 58.5 -141.5s86.167 -58.5 141.5 -58.5s102.5 19.5 141.5 58.5s58.5 86.167 58.5 141.5v200h-300v200z" />
    <glyph glyph-name="uni042E" unicode="&#x42e;" horiz-adv-x="1400" 
d="M0 1400h200v-600h200v200c0 110.667 39 205 117 283s172.333 117 283 117s205 -39 283 -117s117 -172.333 117 -283v-600c0 -110.667 -39 -205 -117 -283s-172.333 -117 -283 -117s-205 39 -283 117s-117 172.333 -117 283v200h-200v-600h-200v1400zM1000 1000
c0 55.333 -19.5 102.5 -58.5 141.5s-86.167 58.5 -141.5 58.5s-102.5 -19.5 -141.5 -58.5s-58.5 -86.167 -58.5 -141.5v-600c0 -55.333 19.5 -102.5 58.5 -141.5s86.167 -58.5 141.5 -58.5s102.5 19.5 141.5 58.5s58.5 86.167 58.5 141.5v600z" />
    <glyph glyph-name="uni042F" unicode="&#x42f;" 
d="M200 1000c0 -55.333 19.5 -102.5 58.5 -141.5s86.167 -58.5 141.5 -58.5h200v400h-200c-55.333 0 -102.5 -19.5 -141.5 -58.5s-58.5 -86.167 -58.5 -141.5zM800 1400v-1400h-200v600h-175l-225 -600h-200l238 633c-44 19.333 -84.333 47.333 -121 84
c-78 78 -117 172.333 -117 283s39 205 117 283s172.333 117 283 117h200h200z" />
    <glyph glyph-name="uni0430" unicode="&#x430;" 
d="M400 200v1c55.333 0 102.666 19.667 141.999 59c38.667 38.667 58 85.334 58 140.001c0 55.333 -19.333 102.666 -58 141.999c-39.333 38.667 -86.666 58 -141.999 58v-1c-55.333 0 -102.666 -19.333 -141.999 -58c-38.667 -39.333 -58 -86.333 -58 -141
c0 -55.333 19.333 -102.333 58 -141c39.333 -39.333 86.666 -59 141.999 -59zM600 53c-59.333 -34.667 -126.001 -52 -200.001 -52v-1c-110.667 0 -205 39 -283 117s-117 172 -117 282v1c0 110.667 39 204.667 117 282c78 78 172.333 117 283 117v1
c71.333 0 136 -16.333 194 -49c-8.66699 34 -26 64.333 -52 91c-39.333 38.667 -86.666 58 -141.999 58h-300v200h300c110.667 0 205 -39 283 -117s117 -172.333 117 -283v-700h-200v53z" />
    <glyph glyph-name="uni0431" unicode="&#x431;" 
d="M0 1000c0 110.667 39 205 117 283s172.333 117 283 117h200v-200h-200c-55.333 0 -102.5 -19.5 -141.5 -58.5s-58.5 -86.167 -58.5 -141.5v-53c59.333 34.667 126 52 200 52v1c110.667 0 205 -39 283 -117s117 -172.333 117 -283v-200c0 -110 -39 -204 -117 -282
s-172.333 -117 -283 -117v-1c-110.667 0 -205 39 -283 117c-77.333 77.333 -116.333 171.333 -117 282v601zM200 400c0 -55.333 19.499 -102.5 58.499 -141.5s86.167 -58.5 141.5 -58.5v1c55.333 0 102.5 19.5 141.5 58.5s58.5 86.167 58.5 141.5v199
c0 55.333 -19.5 102.5 -58.5 141.5s-86.167 58.5 -141.5 58.5v-1c-55.333 0 -102.666 -19.333 -141.999 -58c-38.667 -39.333 -58 -86.333 -58 -141v-200z" />
    <glyph glyph-name="uni0432" unicode="&#x432;" 
d="M0 1000c0 110.667 39 205 117 283s172.333 117 283 117s211.667 -41.667 303 -125c44 -40.667 58.667 -83 44 -127c-10.667 -86.667 -47 -162 -109 -226c15.333 -12 30.333 -25 45 -39c78 -78 117 -172.333 117 -283v-200c0 -110 -39 -204 -117 -282
s-172.333 -117 -283 -117v-1c-110.667 0 -205 39 -283 117c-77.333 77.333 -116.333 171.333 -117 282v601zM200 400c0 -55.333 19.499 -102.5 58.499 -141.5s86.167 -58.5 141.5 -58.5v1c55.333 0 102.5 19.5 141.5 58.5s58.5 86.167 58.5 141.5v199
c0 55.333 -19.5 102.5 -58.5 141.5s-86.167 58.5 -141.5 58.5v-1c-55.333 0 -102.666 -19.333 -141.999 -58c-38.667 -39.333 -58 -86.333 -58 -141v-200zM257.999 1141c-38.667 -38.667 -58.001 -85.668 -58.001 -141.001v-53c45.333 26.667 95.333 43 150 49v4
c55.333 0 102.333 19.333 141 58c24.667 24.667 41.667 52.334 51 83.001h-1c-38.667 39.333 -85.667 59 -141 59s-102.666 -19.667 -141.999 -59z" />
    <glyph glyph-name="uni0433" unicode="&#x433;" 
d="M0 1000h800v-200h-600v-800h-200v1000z" />
    <glyph glyph-name="uni0434" unicode="&#x434;" 
d="M800 399c-0.666992 -110.667 -39.667 -204.667 -117 -282c-78 -78 -172.333 -117 -283 -117v1c-110.667 0 -205 39 -283 117s-117 172 -117 282v200c0 110.667 39 205 117 283s172.333 117 283 117v-1c74 0 140.667 -17.333 200 -52v53c0 55.333 -19.5 102.5 -58.5 141.5
s-86.167 58.5 -141.5 58.5h-300v200h300c110.667 0 205 -39 283 -117s117 -172.333 117 -283v-601zM600 600c0 54.667 -19.334 101.667 -58.001 141c-39.333 38.667 -86.666 58 -141.999 58v1c-55.333 0 -102.5 -19.5 -141.5 -58.5s-58.5 -86.167 -58.5 -141.5v-199
c0 -55.333 19.5 -102.5 58.5 -141.5s86.167 -58.5 141.5 -58.5v-1c55.333 0 102.5 19.5 141.5 58.5s58.5 86.167 58.5 141.5v200z" />
    <glyph glyph-name="uni0435" unicode="&#x435;" 
d="M400 200l300 0.000976562v-200h-300v1c-110.667 0 -205 39 -283 117s-117 172 -117 282v200c0 110.667 39 205 117 283s172.333 117 283 117s205 -39 283 -117s117 -172.333 117 -283v-200h-600c0 -54.667 19.667 -101.334 59 -140.001
c38.667 -39.333 85.667 -59 141 -59v-1zM200 600.001h400c0 55.333 -19.5 102.5 -58.5 141.5s-86.167 58.5 -141.5 58.5s-102.5 -19.5 -141.5 -58.5s-58.5 -86.167 -58.5 -141.5z" />
    <glyph glyph-name="uni0436" unicode="&#x436;" horiz-adv-x="1600" 
d="M200 1000l171 -400h229v400h200v-400h228l172 400h200l-200 -500l200 -500h-200l-172 400h-228v-400h-200v400h-229l-171 -400h-200l200 500l-200 500h200z" />
    <glyph glyph-name="uni0437" unicode="&#x437;" 
d="M400 0c-110.667 0 -205 22.3311 -283 66.998s-117 122.334 -117 233.001h200c0 -66.667 66.667 -100 200 -100v-1c133.333 0.666992 200 34 200 100c0 66.667 -66.667 100 -200 100h-100v200h100c133.333 0.666992 200 34.334 200 101.001c0 66 -66.667 99 -200 99
c-133.333 0.666992 -200 -32.666 -200 -99.999h-200c0 110.667 39 188.334 117 233.001s172.333 67 283 67s205 -22.333 283 -67s117 -122.334 117 -233.001c0 -44 -39 -105 -117 -183c-6 -6 -12 -11.667 -18 -17c6 -5.33301 12 -11 18 -17c78 -78 117 -139 117 -183
c0 -110.667 -39 -188.334 -117 -233.001s-172.333 -67 -283 -67v1z" />
    <glyph glyph-name="uni0438" unicode="&#x438;" 
d="M200 0h-200v1000h200v-650l400 650h200v-1000h-200v650z" />
    <glyph glyph-name="uni0439" unicode="&#x439;" 
d="M200 0h-200v1000h200v-650l400 650h200v-1000h-200v650zM600 1500l-100 -300h-200l-100 300h400z" />
    <glyph glyph-name="uni043A" unicode="&#x43a;" 
d="M200 500l300 500h200l-300 -500l400 -500h-200l-400 500v-500h-200v1000h200v-500z" />
    <glyph glyph-name="uni043B" unicode="&#x43b;" 
d="M0 800v-200c0 110.667 39 205 117 283s172.333 117 283 117s205 -39 283 -117s117 -172.333 117 -283v-600h-200v600c0 55.333 -19.5 102.5 -58.5 141.5s-86.167 58.5 -141.5 58.5s-102.5 -19.5 -141.5 -58.5s-58.5 -86.167 -58.5 -141.5v-600h-200v800z" />
    <glyph glyph-name="uni043C" unicode="&#x43c;" 
d="M800 1000v-1000h-200v533l-200 -466l-200 466v-533h-200v1000h200l200 -467l200 467h200z" />
    <glyph glyph-name="uni043D" unicode="&#x43d;" 
d="M800 1000v-1000h-200v400h-400v-400h-200v1000h200v-400h400v400h200z" />
    <glyph glyph-name="uni043E" unicode="&#x43e;" 
d="M400 800c-55.333 0 -102.5 -19.5 -141.5 -58.5s-58.5 -86.167 -58.5 -141.5v-199c0 -55.333 19.5 -102.5 58.5 -141.5s86.167 -58.5 141.5 -58.5v-1c55.333 0 102.5 19.5 141.5 58.5s58.5 86.167 58.5 141.5v199c0 55.333 -19.5 102.5 -58.5 141.5
s-86.167 58.5 -141.5 58.5v1zM400 1c-110.667 0 -205 39 -283 117s-117 172 -117 282v200c0 110.667 39 205 117 283s172.333 117 283 117v-1c110.667 0 205 -39 283 -117s117 -172.333 117 -283v-200c-0.666992 -110.667 -39.667 -204.667 -117 -282
c-78 -78 -172.333 -117 -283 -117v1z" />
    <glyph glyph-name="uni043F" unicode="&#x43f;" 
d="M600 800h-400v-800h-200v1000h800v-1000h-200v800z" />
    <glyph glyph-name="uni0440" unicode="&#x440;" 
d="M0 1000h200v-53c59.333 35.333 126 53 200 53v-1c110.667 0 205 -39 283 -117s117 -172.333 117 -283v-200c-0.666992 -110.667 -39.667 -204.667 -117 -282c-78 -78 -172.333 -117 -283 -117v1c-74 0 -140.667 17.333 -200 52v-453h-200v1400zM400 800
c-55.333 0 -102.5 -19.5 -141.5 -58.5s-58.5 -86.167 -58.5 -141.5v-199c0 -55.333 19.5 -102.5 58.5 -141.5s86.167 -58.5 141.5 -58.5v-1c55.333 0 102.5 19.5 141.5 58.5s58.5 86.167 58.5 141.5v199c0 55.333 -19.5 102.5 -58.5 141.5s-86.167 58.5 -141.5 58.5v1z" />
    <glyph glyph-name="uni0441" unicode="&#x441;" 
d="M0 600c0 110.667 39 205 117 283s172.333 117 283 117s205 -39 283 -117s117 -172.333 117 -283h-200c0 55.333 -19.5 102.5 -58.5 141.5s-86.167 58.5 -141.5 58.5s-102.5 -19.5 -141.5 -58.5s-58.5 -86.167 -58.5 -141.5v-199c0 -55.333 19.5 -102.5 58.5 -141.5
s86.167 -58.5 141.5 -58.5v-1c55.333 0 102.5 19.5 141.5 58.5s58.5 86.167 58.5 141.5h200c0 -110.667 -39 -205 -117 -283s-172.333 -117 -283 -117v1c-110.667 0 -205 39 -283 117s-117 172 -117 282v200v0z" />
    <glyph glyph-name="uni0442" unicode="&#x442;" 
d="M800 1000v-200h-300v-800h-200v800h-300v200h800z" />
    <glyph glyph-name="uni0443" unicode="&#x443;" horiz-adv-x="1001" 
d="M400 -200c56 0 103.5 19.5 142.5 58.5s58.5 86.167 58.5 141.5h-1v53c-59.333 -34.667 -125.666 -52 -198.999 -52v-1c-110.667 0 -205 39 -283 117s-117 172.333 -117 283l-1 600h200l1 -600c0 -55.333 19.5 -102.5 58.5 -141.5s86.167 -58.5 141.5 -58.5v1
c55.333 0 102.666 19.667 141.999 59c33.333 33.333 52.333 73.333 57 120v620h200v-400h1v-200c0 -10 -0.333008 -19.667 -1 -29v-371h1c0 -110.667 -39 -205 -117 -283s-172.667 -117 -284 -117h-300v200h300z" />
    <glyph glyph-name="uni0444" unicode="&#x444;" horiz-adv-x="1600" 
d="M600 1200h200v-253c59.333 35.333 126 53 200 53v-1c110.667 0 205 -39 283 -117s117 -172.333 117 -283v-200c-0.666992 -110.667 -39.667 -204.667 -117 -282c-78 -78 -172.333 -117 -283 -117v1c-74 0 -140.667 17.333 -200 52v-253h-200v252
c-59.333 -34.667 -126 -52 -200 -52v1c-110.667 0 -205 39 -283 117s-117 172 -117 282v200c0 110.667 39 205 117 283s172.333 117 283 117v-1c74 0 140.667 -17.667 200 -53v254zM1000 800c-55.333 0 -102.667 -19.666 -142 -58.999
c-37.333 -37.333 -56.666 -82 -57.999 -134v-8v-200c0 -54.667 19.333 -101.334 58 -140.001c39.333 -38.667 86.666 -58 141.999 -58v-1c55.333 0 102.5 19.5 141.5 58.5s58.5 86.167 58.5 141.5v199c0 55.333 -19.5 102.5 -58.5 141.5s-86.167 58.5 -141.5 58.5v1z
M399.999 800.001c-55.333 0 -102.5 -19.5 -141.5 -58.5s-58.5 -86.167 -58.5 -141.5v-199c0 -55.333 19.5 -102.5 58.5 -141.5s86.167 -58.5 141.5 -58.5v-1c55.333 0 102.5 19.5 141.5 58.5s58.5 86.167 58.5 141.5v199v1v7c-2 52 -21.667 96.333 -59 133
c-38.667 39.333 -85.667 59 -141 59v1z" />
    <glyph glyph-name="uni0445" unicode="&#x445;" 
d="M238 1000l162 -288l162 288h238l-282 -498l282 -502h-233l-167 294l-167 -294h-233l282 502l-282 498h238z" />
    <glyph glyph-name="uni0446" unicode="&#x446;" horiz-adv-x="1200" 
d="M800 0h-800v1000h200v-800h400v800h200v-800h200v-400h-200v200z" />
    <glyph glyph-name="uni0447" unicode="&#x447;" 
d="M600 350v102.001c-59.333 -34.667 -126 -52 -200 -52c-110.667 0 -205 39 -283 117s-117 172.333 -117 283v200h200v-200c0 -55.333 19.5 -102.5 58.5 -141.5s86.167 -58.5 141.5 -58.5s102.333 19.333 141 58c37.333 37.333 57 81.666 59 132.999v209h200v-1000h-200
v350z" />
    <glyph glyph-name="uni0448" unicode="&#x448;" horiz-adv-x="1600" 
d="M1200 1000h200v-1000h-1400v1000h200v-800h400v800h200v-800h400v800z" />
    <glyph glyph-name="uni0449" unicode="&#x449;" horiz-adv-x="1800" 
d="M1400 200h200v-400h-200v200h-1400v1000h200v-800h400v800h200v-800h400v800h200v-800z" />
    <glyph glyph-name="uni044A" unicode="&#x44a;" horiz-adv-x="1200" 
d="M0 1000h200h200v-200h200c110.667 0 205 -39 283 -117s117 -172.333 117 -283s-39 -205 -117 -283s-172.333 -117 -283 -117h-400v800h-200v200zM800 400c0 55.333 -19.5 102.5 -58.5 141.5s-86.167 58.5 -141.5 58.5h-200v-400h200c55.333 0 102.5 19.5 141.5 58.5
s58.5 86.167 58.5 141.5z" />
    <glyph glyph-name="uni044B" unicode="&#x44b;" horiz-adv-x="1400" 
d="M0 0v1000h200v-200h200c110.667 0 205 -39 283 -117s117 -172.333 117 -283s-39 -205 -117 -283s-172.333 -117 -283 -117h-200h-200zM600 400c0 55.333 -19.5 102.5 -58.5 141.5s-86.167 58.5 -141.5 58.5h-200v-400h200c55.333 0 102.5 19.5 141.5 58.5
s58.5 86.167 58.5 141.5zM1000 1000h200v-1000h-200v1000z" />
    <glyph glyph-name="uni044C" unicode="&#x44c;" 
d="M0 0v1000h200v-200h200c110.667 0 205 -39 283 -117s117 -172.333 117 -283s-39 -205 -117 -283s-172.333 -117 -283 -117h-200h-200zM600 400c0 55.333 -19.5 102.5 -58.5 141.5s-86.167 58.5 -141.5 58.5h-200v-400h200c55.333 0 102.5 19.5 141.5 58.5
s58.5 86.167 58.5 141.5z" />
    <glyph glyph-name="uni044D" unicode="&#x44d;" 
d="M300 600h299.999c0 55.333 -19.5 102.5 -58.5 141.5s-86.167 58.5 -141.5 58.5s-102.5 -19.5 -141.5 -58.5s-58.5 -86.167 -58.5 -141.5h-200c0 110.667 39 205 117 283s172.333 117 283 117s205 -39 283 -117s117 -172.333 117 -283v-200c0 -110 -39 -204 -117 -282
s-172.333 -117 -283 -117v-1c-110.667 0 -205 39 -283 117s-117 172.333 -117 283h200c0 -55.333 19.5 -102.5 58.5 -141.5s86.167 -58.5 141.5 -58.5v1c55.333 0 102.333 19.333 141 58s58.334 85.667 59.001 141h-300v200z" />
    <glyph glyph-name="uni044E" unicode="&#x44e;" horiz-adv-x="1400" 
d="M0 1000h200v-400h200c0 110.667 39 205 117 283s172.333 117 283 117v-1c110.667 0 205 -39 283 -117s117 -172.333 117 -283v-200c-0.666992 -110.667 -39.667 -204.667 -117 -282c-78 -78 -172.333 -117 -283 -117v1c-110.667 0 -205 39 -283 117s-117 172 -117 282
h-200v-400h-200v1000zM800 800c-55.333 0 -102.5 -19.5 -141.5 -58.5s-58.5 -86.167 -58.5 -141.5v-199c0 -55.333 19.5 -102.5 58.5 -141.5s86.167 -58.5 141.5 -58.5v-1c55.333 0 102.5 19.5 141.5 58.5s58.5 86.167 58.5 141.5v199c0 55.333 -19.5 102.5 -58.5 141.5
s-86.167 58.5 -141.5 58.5v1z" />
    <glyph glyph-name="uni044F" unicode="&#x44f;" 
d="M207 248c-32 18 -62 41 -90 69c-78 78 -117 172.333 -117 283s39 205 117 283s172.333 117 283 117h400v-1000h-200v200h-184l-166 -200h-250zM200 600c0 -55.333 19.5 -102.5 58.5 -141.5s86.167 -58.5 141.5 -58.5h200v400h-200c-55.333 0 -102.5 -19.5 -141.5 -58.5
s-58.5 -86.167 -58.5 -141.5z" />
    <glyph glyph-name="uni0451" unicode="&#x451;" 
d="M400 200l300 0.000976562v-200h-300v1c-110.667 0 -205 39 -283 117s-117 172 -117 282v200c0 110.667 39 205 117 283s172.333 117 283 117s205 -39 283 -117s117 -172.333 117 -283v-200h-600c0 -54.667 19.667 -101.334 59 -140.001
c38.667 -39.333 85.667 -59 141 -59v-1zM200 600.001h400c0 55.333 -19.5 102.5 -58.5 141.5s-86.167 58.5 -141.5 58.5s-102.5 -19.5 -141.5 -58.5s-58.5 -86.167 -58.5 -141.5zM300 1300c0 -27.333 -9.83301 -50.833 -29.5 -70.5s-43.167 -29.5 -70.5 -29.5
s-50.833 9.83301 -70.5 29.5s-29.5 43.167 -29.5 70.5s9.83301 50.833 29.5 70.5s43.167 29.5 70.5 29.5s50.833 -9.83301 70.5 -29.5s29.5 -43.167 29.5 -70.5zM700 1300c0 -27.333 -9.83301 -50.833 -29.5 -70.5s-43.167 -29.5 -70.5 -29.5s-50.833 9.83301 -70.5 29.5
s-29.5 43.167 -29.5 70.5s9.83301 50.833 29.5 70.5s43.167 29.5 70.5 29.5s50.833 -9.83301 70.5 -29.5s29.5 -43.167 29.5 -70.5z" />
    <glyph glyph-name="uni0452" unicode="&#x452;" horiz-adv-x="1200" 
d="M800 600c0 55.333 -19.5 102.5 -58.5 141.5s-86.167 58.5 -141.5 58.5h-200v-800h-200v1100h-200v200h200v100h200v-100h300v-200h-300v-100h200c110.667 0 205 -39 283 -117s117 -172.333 117 -283v-400c0 -110.667 -39 -205 -117 -283s-172.333 -117 -283 -117v200
c55.333 0 102.5 19.5 141.5 58.5s58.5 86.167 58.5 141.5v400z" />
    <glyph glyph-name="uni0453" unicode="&#x453;" 
d="M0 0h200v800h600v200h-800v-1000zM600 1500l-100 -300h-200l100 300h200z" />
    <glyph glyph-name="uni0454" unicode="&#x454;" 
d="M500 400h-300.001c0.666992 -55.333 20.334 -102.333 59.001 -141s85.667 -58 141 -58v-1c55.333 0 102.5 19.5 141.5 58.5s58.5 86.167 58.5 141.5h200c0 -110.667 -39 -205 -117 -283s-172.333 -117 -283 -117v1c-110.667 0 -205 39 -283 117s-117 172 -117 282v200
c0 110.667 39 205 117 283s172.333 117 283 117s205 -39 283 -117s117 -172.333 117 -283h-200c0 55.333 -19.5 102.5 -58.5 141.5s-86.167 58.5 -141.5 58.5s-102.5 -19.5 -141.5 -58.5s-58.5 -86.167 -58.5 -141.5h300v-200z" />
    <glyph glyph-name="uni0455" unicode="&#x455;" 
d="M800 1000v-200h-400c-55.333 0 -102.5 -19.5 -141.5 -58.5s-58.5 -86.167 -58.5 -141.5h600v-200c0 -110.667 -39 -205 -117 -283s-172.333 -117 -283 -117h-400v200h400c55.333 0 102.5 19.5 141.5 58.5s58.5 86.167 58.5 141.5h-600v200c0 110.667 39 205 117 283
s172.333 117 283 117h400z" />
    <glyph glyph-name="uni0456" unicode="&#x456;" horiz-adv-x="400" 
d="M200 1000v-1000h-200v1000h200zM200 1400v-200h-200v200h200z" />
    <glyph glyph-name="uni0457" unicode="&#x457;" horiz-adv-x="800" 
d="M400 1000v-1000h-200v1000h200zM200 1300c0 -27.333 -9.83301 -50.833 -29.5 -70.5s-43.167 -29.5 -70.5 -29.5s-50.833 9.83301 -70.5 29.5s-29.5 43.167 -29.5 70.5s9.83301 50.833 29.5 70.5s43.167 29.5 70.5 29.5s50.833 -9.83301 70.5 -29.5
s29.5 -43.167 29.5 -70.5zM600 1300c0 -27.333 -9.83301 -50.833 -29.5 -70.5s-43.167 -29.5 -70.5 -29.5s-50.833 9.83301 -70.5 29.5s-29.5 43.167 -29.5 70.5s9.83301 50.833 29.5 70.5s43.167 29.5 70.5 29.5s50.833 -9.83301 70.5 -29.5s29.5 -43.167 29.5 -70.5z" />
    <glyph glyph-name="uni0458" unicode="&#x458;" horiz-adv-x="600" 
d="M400 0c0 -110.667 -39 -205 -117 -283s-172.333 -117 -283 -117v200c55.333 0 102.5 19.5 141.5 58.5s58.5 86.167 58.5 141.5v1000h200v-1000zM400 1400v-200h-200v200h200z" />
    <glyph glyph-name="uni0459" unicode="&#x459;" horiz-adv-x="1600" 
d="M600 600c0 55.333 -19.5 102.5 -58.5 141.5s-86.167 58.5 -141.5 58.5s-102.5 -19.5 -141.5 -58.5s-58.5 -86.167 -58.5 -141.5v-600h-200v600c0 110.667 39 205 117 283s172.333 117 283 117c74 0 140.667 -17.667 200 -53v53h200v-200h200c110.667 0 205 -39 283 -117
s117 -172.333 117 -283s-39 -205 -117 -283s-172.333 -117 -283 -117h-400v600zM1200 400c0 55.333 -19.5 102.5 -58.5 141.5s-86.167 58.5 -141.5 58.5h-200v-400h200c55.333 0 102.5 19.5 141.5 58.5s58.5 86.167 58.5 141.5z" />
    <glyph glyph-name="uni045A" unicode="&#x45a;" horiz-adv-x="1600" 
d="M600 400h-400v-400h-200v1000h200v-400h400v400h200v-200h200c110.667 0 205 -39 283 -117s117 -172.333 117 -283s-39 -205 -117 -283s-172.333 -117 -283 -117h-400v400zM1200 400c0 55.333 -19.5 102.5 -58.5 141.5s-86.167 58.5 -141.5 58.5h-200v-400h200
c55.333 0 102.5 19.5 141.5 58.5s58.5 86.167 58.5 141.5z" />
    <glyph glyph-name="uni045B" unicode="&#x45b;" horiz-adv-x="1200" 
d="M0 1300h200v100h200v-100h300v-200h-300v-153c59.333 35.333 126 53 200 53c110.667 0 205 -39 283 -117s117 -172.667 117 -284v-599h-200v599c0 56 -19.5 103.5 -58.5 142.5s-86.167 58.5 -141.5 58.5s-102.5 -19.5 -141.5 -58.5s-58.5 -86.167 -58.5 -141.5v-600h-200
v1100h-200v200z" />
    <glyph glyph-name="uni045C" unicode="&#x45c;" 
d="M200 500l300 500h200l-300 -500l400 -500h-200l-400 500v-500h-200v1000h200v-500zM600 1500l-100 -300h-200l100 300h200z" />
    <glyph glyph-name="uni045E" unicode="&#x45e;" horiz-adv-x="1001" 
d="M400 -200c56 0 103.5 19.5 142.5 58.5s58.5 86.167 58.5 141.5h-1v53c-59.333 -34.667 -125.666 -52 -198.999 -52v-1c-110.667 0 -205 39 -283 117s-117 172.333 -117 283l-1 600h200l1 -600c0 -55.333 19.5 -102.5 58.5 -141.5s86.167 -58.5 141.5 -58.5v1
c55.333 0 102.666 19.667 141.999 59c33.333 33.333 52.333 73.333 57 120v620h200v-400h1v-200c0 -10 -0.333008 -19.667 -1 -29v-371h1c0 -110.667 -39 -205 -117 -283s-172.667 -117 -284 -117h-300v200h300zM600 1500l-100 -300h-200l-100 300h400z" />
    <glyph glyph-name="uni045F" unicode="&#x45f;" 
d="M300 0h-300v1000h200v-800h400v800h200v-1000h-300v-200h-200v200z" />
    <glyph glyph-name="uni0490" unicode="&#x490;" 
d="M200 0h-200v1400h600v200h200v-400h-600v-1200z" />
    <glyph glyph-name="uni0491" unicode="&#x491;" 
d="M200 0h-200v1000h600v200h200v-400h-600v-800z" />
    <glyph glyph-name="uni2013" unicode="&#x2013;" 
d="M800 800v-200h-800v200h800z" />
    <glyph glyph-name="uni2014" unicode="&#x2014;" horiz-adv-x="1100" 
d="M900 800v-200h-900v200h900z" />
    <glyph glyph-name="uni2018" unicode="&#x2018;" horiz-adv-x="558" 
d="M122 1135c-7.33301 5.33301 -13.999 10.9971 -19.999 16.9971c-4 4 -7.66699 8 -11 12c-129.333 138.667 -107 353.334 67 644.001c-66.667 -200 -66.667 -333.333 0 -400l6 -6c14 4 28.667 6 44 6c41.333 0 76.666 -14.667 105.999 -44s44 -64.666 44 -105.999
s-14.667 -76.666 -44 -105.999s-64.666 -44 -105.999 -44c-16.667 0 -32.334 2.33301 -47.001 7l-3 -7c-12.667 8.66699 -24.667 17.667 -36 27z" />
    <glyph glyph-name="uni2019" unicode="&#x2019;" horiz-adv-x="661" 
d="M236 1373c7.33301 -5.33301 13.999 -10.9971 19.999 -16.9971c4 -4 7.66699 -8 11 -12c129.333 -138.667 107 -353.334 -67 -644.001c66.667 200 66.667 333.333 0 400l-6 6c-14 -4 -28.667 -6 -44 -6c-41.333 0 -76.666 14.667 -105.999 44s-44 64.666 -44 105.999
s14.667 76.666 44 105.999s64.666 44 105.999 44c16.667 0 32.334 -2.33301 47.001 -7l3 7c12.667 -8.66699 24.667 -17.667 36 -27z" />
    <glyph glyph-name="uni201A" unicode="&#x201a;" horiz-adv-x="661" 
d="M236 473c7.33301 -5.33301 13.999 -10.9971 19.999 -16.9971c4 -4 7.66699 -8 11 -12c129.333 -138.667 107 -353.334 -67 -644.001c66.667 200 66.667 333.333 0 400l-6 6c-14 -4 -28.667 -6 -44 -6c-41.333 0 -76.666 14.667 -105.999 44s-44 64.666 -44 105.999
s14.667 76.666 44 105.999s64.666 44 105.999 44c16.667 0 32.334 -2.33301 47.001 -7l3 7c12.667 -8.66699 24.667 -17.667 36 -27z" />
    <glyph glyph-name="uni201C" unicode="&#x201c;" horiz-adv-x="1017" 
d="M122 1135c-7.33301 5.33301 -13.999 10.9971 -19.999 16.9971c-4 4 -7.66699 8 -11 12c-129.333 138.667 -107 353.334 67 644.001c-66.667 -200 -66.667 -333.333 0 -400l6 -6c14 4 28.667 6 44 6c41.333 0 76.666 -14.667 105.999 -44s44 -64.666 44 -105.999
s-14.667 -76.666 -44 -105.999s-64.666 -44 -105.999 -44c-16.667 0 -32.334 2.33301 -47.001 7l-3 -7c-12.667 8.66699 -24.667 17.667 -36 27zM581.001 1121c-7.33301 5.33301 -13.999 10.9971 -19.999 16.9971c-4 4 -7.66699 8 -11 12
c-129.333 138.667 -107 353.334 67 644.001c-66.667 -200 -66.667 -333.333 0 -400l6 -6c14 4 28.667 6 44 6c41.333 0 76.666 -14.667 105.999 -44s44 -64.666 44 -105.999s-14.667 -76.666 -44 -105.999s-64.666 -44 -105.999 -44c-16.667 0 -32.334 2.33301 -47.001 7
l-3 -7c-12.667 8.66699 -24.667 17.667 -36 27z" />
    <glyph glyph-name="uni201D" unicode="&#x201d;" horiz-adv-x="1111" 
d="M236 1373c7.33301 -5.33301 13.999 -10.9971 19.999 -16.9971c4 -4 7.66699 -8 11 -12c129.333 -138.667 107 -353.334 -67 -644.001c66.667 200 66.667 333.333 0 400l-6 6c-14 -4 -28.667 -6 -44 -6c-41.333 0 -76.666 14.667 -105.999 44s-44 64.666 -44 105.999
s14.667 76.666 44 105.999s64.666 44 105.999 44c16.667 0 32.334 -2.33301 47.001 -7l3 7c12.667 -8.66699 24.667 -17.667 36 -27zM685.999 1373c7.33301 -5.33301 13.999 -10.9971 19.999 -16.9971c4 -4 7.66699 -8 11 -12c129.333 -138.667 107 -353.334 -67 -644.001
c66.667 200 66.667 333.333 0 400l-6 6c-14 -4 -28.667 -6 -44 -6c-41.333 0 -76.666 14.667 -105.999 44s-44 64.666 -44 105.999s14.667 76.666 44 105.999s64.666 44 105.999 44c16.667 0 32.334 -2.33301 47.001 -7l3 7c12.667 -8.66699 24.667 -17.667 36 -27z" />
    <glyph glyph-name="uni201E" unicode="&#x201e;" horiz-adv-x="1111" 
d="M236 473c7.33301 -5.33301 13.999 -10.9971 19.999 -16.9971c4 -4 7.66699 -8 11 -12c129.333 -138.667 107 -353.334 -67 -644.001c66.667 200 66.667 333.333 0 400l-6 6c-14 -4 -28.667 -6 -44 -6c-41.333 0 -76.666 14.667 -105.999 44s-44 64.666 -44 105.999
s14.667 76.666 44 105.999s64.666 44 105.999 44c16.667 0 32.334 -2.33301 47.001 -7l3 7c12.667 -8.66699 24.667 -17.667 36 -27zM685.999 473.003c7.33301 -5.33301 13.999 -10.9971 19.999 -16.9971c4 -4 7.66699 -8 11 -12
c129.333 -138.667 107 -353.334 -67 -644.001c66.667 200 66.667 333.333 0 400l-6 6c-14 -4 -28.667 -6 -44 -6c-41.333 0 -76.666 14.667 -105.999 44s-44 64.666 -44 105.999s14.667 76.666 44 105.999s64.666 44 105.999 44c16.667 0 32.334 -2.33301 47.001 -7l3 7
c12.667 -8.66699 24.667 -17.667 36 -27z" />
    <glyph glyph-name="dagger" unicode="&#x2020;" horiz-adv-x="800" 
d="M600 1100v-200h-200v-900h-200v900h-200v200h200v300h200v-300h200z" />
    <glyph glyph-name="daggerdbl" unicode="&#x2021;" horiz-adv-x="800" 
d="M600 1100v-200h-200v-400h200v-200h-200v-300h-200v300h-200v200h200v400h-200v200h200v300h200v-300h200z" />
    <glyph glyph-name="bullet" unicode="&#x2022;" horiz-adv-x="600" 
d="M200 500c-55.333 0 -102.5 19.5 -141.5 58.5s-58.5 86.167 -58.5 141.5s19.5 102.5 58.5 141.5s86.167 58.5 141.5 58.5s102.5 -19.5 141.5 -58.5s58.5 -86.167 58.5 -141.5s-19.5 -102.5 -58.5 -141.5s-86.167 -58.5 -141.5 -58.5z" />
    <glyph glyph-name="ellipsis" unicode="&#x2026;" horiz-adv-x="1300" 
d="M300 150c0 -41.333 -14.667 -76.666 -44 -105.999s-64.666 -44 -105.999 -44s-76.666 14.667 -105.999 44s-44 64.666 -44 105.999s14.667 76.666 44 105.999s64.666 44 105.999 44s76.666 -14.667 105.999 -44s44 -64.666 44 -105.999zM700 150
c0 -41.333 -14.667 -76.666 -44 -105.999s-64.666 -44 -105.999 -44c-42 0 -77.5 14.667 -106.5 44s-43.5 64.666 -43.5 105.999s14.5 76.666 43.5 105.999s64.5 44 106.5 44c41.333 0 76.666 -14.667 105.999 -44s44 -64.666 44 -105.999zM1100 150
c0 -42 -14.667 -77.5 -44 -106.5s-64.666 -43.5 -105.999 -43.5s-76.666 14.5 -105.999 43.5s-44 64.5 -44 106.5c0 41.333 14.667 76.666 44 105.999s64.666 44 105.999 44s76.666 -14.667 105.999 -44s44 -64.666 44 -105.999z" />
    <glyph glyph-name="uni2030" unicode="&#x2030;" horiz-adv-x="1400" 
d="M800 1400l-600 -1400h-200l600 1400h200zM0 1200c0 -27.333 4 -53.166 12 -77.499s18.667 -45.5 32 -63.5s29.166 -32.333 47.499 -43s37.833 -16 58.5 -16s40.167 5.33301 58.5 16s34.166 25 47.499 43s24 39.167 32 63.5s12 50.166 12 77.499s-4 53.166 -12 77.499
s-18.667 45.5 -32 63.5s-29.166 32.333 -47.499 43s-37.833 16 -58.5 16s-40.167 -5.33301 -58.5 -16s-34.166 -25 -47.499 -43s-24 -39.167 -32 -63.5s-12 -50.166 -12 -77.499zM100 1200c0 20.667 1.33301 40.167 4 58.5s6.16699 34.166 10.5 47.499s9.5 24 15.5 32
s12.667 12 20 12c6.66699 0 13.167 -4 19.5 -12s11.666 -18.667 15.999 -32s7.83301 -29.166 10.5 -47.499s4 -37.833 4 -58.5s-1.33301 -40.167 -4 -58.5s-6.16699 -34.166 -10.5 -47.499s-9.66602 -24 -15.999 -32s-12.833 -12 -19.5 -12c-7.33301 0 -14 4 -20 12
s-11.167 18.667 -15.5 32s-7.83301 29.166 -10.5 47.499s-4 37.833 -4 58.5zM500 200c0 -27.333 4 -53.166 12 -77.499s18.667 -45.5 32 -63.5s29.166 -32.333 47.499 -43s37.833 -16 58.5 -16s40.167 5.33301 58.5 16s34.166 25 47.499 43s24 39.167 32 63.5
s12 50.166 12 77.499s-4 53.166 -12 77.499s-18.667 45.5 -32 63.5s-29.166 32.333 -47.499 43s-37.833 16 -58.5 16s-40.167 -5.33301 -58.5 -16s-34.166 -25 -47.499 -43s-24 -39.167 -32 -63.5s-12 -50.166 -12 -77.499zM600 200c0 20.667 1.33301 40.167 4 58.5
s6.16699 34.166 10.5 47.499s9.5 24 15.5 32s12.667 12 20 12c6.66699 0 13.167 -4 19.5 -12s11.666 -18.667 15.999 -32s7.83301 -29.166 10.5 -47.499s4 -37.833 4 -58.5s-1.33301 -40.167 -4 -58.5s-6.16699 -34.166 -10.5 -47.499s-9.66602 -24 -15.999 -32
s-12.833 -12 -19.5 -12c-7.33301 0 -14 4 -20 12s-11.167 18.667 -15.5 32s-7.83301 29.166 -10.5 47.499s-4 37.833 -4 58.5zM900 200c0 -27.333 4 -53.166 12 -77.499s18.667 -45.5 32 -63.5s29.166 -32.333 47.499 -43s37.833 -16 58.5 -16s40.167 5.33301 58.5 16
s34.166 25 47.499 43s24 39.167 32 63.5s12 50.166 12 77.499s-4 53.166 -12 77.499s-18.667 45.5 -32 63.5s-29.166 32.333 -47.499 43s-37.833 16 -58.5 16s-40.167 -5.33301 -58.5 -16s-34.166 -25 -47.499 -43s-24 -39.167 -32 -63.5s-12 -50.166 -12 -77.499zM1000 200
c0 20.667 1.33301 40.167 4 58.5s6.16699 34.166 10.5 47.499s9.5 24 15.5 32s12.667 12 20 12c6.66699 0 13.167 -4 19.5 -12s11.666 -18.667 15.999 -32s7.83301 -29.166 10.5 -47.499s4 -37.833 4 -58.5s-1.33301 -40.167 -4 -58.5s-6.16699 -34.166 -10.5 -47.499
s-9.66602 -24 -15.999 -32s-12.833 -12 -19.5 -12c-7.33301 0 -14 4 -20 12s-11.167 18.667 -15.5 32s-7.83301 29.166 -10.5 47.499s-4 37.833 -4 58.5z" />
    <glyph glyph-name="guilsinglleft" unicode="&#x2039;" horiz-adv-x="800" 
d="M600 100l-600 600l600 600v-244l-347 -356l347 -353v-247z" />
    <glyph glyph-name="guilsinglright" unicode="&#x203a;" horiz-adv-x="800" 
d="M0 347l347 353l-347 356v244l600 -600l-600 -600v247z" />
    <glyph glyph-name="uni20AC" unicode="&#x20ac;" horiz-adv-x="1100" 
d="M0 600h100v200h-100v100h100v100c0 110.667 39 205 117 283s172.333 117 283 117s205 -39 283 -117s117 -172.333 117 -283h-200c0 55.333 -19.5 102.5 -58.5 141.5s-86.167 58.5 -141.5 58.5s-102.5 -19.5 -141.5 -58.5s-58.5 -86.167 -58.5 -141.5v-100h300v-100h-300
v-200h300v-100h-300v-100c0 -55.333 19.5 -102.5 58.5 -141.5s86.167 -58.5 141.5 -58.5s102.5 19.5 141.5 58.5s58.5 86.167 58.5 141.5h200c0 -110.667 -39 -205 -117 -283s-172.333 -117 -283 -117s-205 39 -283 117s-117 172.333 -117 283v100h-100v100z" />
    <glyph glyph-name="uni2116" unicode="&#x2116;" horiz-adv-x="2000" 
d="M200 933v-933h-200v1400h200l400 -933v933h200v-1400h-200zM1400 1399v1c110.667 0 205 -39 283 -117s117 -172 117 -282v-1c0 -110 -39 -204 -117 -282s-172.333 -117 -283 -117v-1c-110.667 0 -205 39 -283 117c-77.333 77.333 -116.333 171.333 -117 282v1
c0.666992 110 39.667 204 117 282c78 78 172.333 117 283 117zM1400 800v1c55.333 0 102.666 19.667 141.999 59c38.667 38.667 58 85.334 58 140.001c0 55.333 -19.333 102.666 -58 141.999c-39.333 38.667 -86.666 58 -141.999 58v-1c-55.333 0 -102.333 -19.667 -141 -59
c-38.667 -38.667 -58.334 -85.667 -59.001 -141c0.666992 -55.333 20.334 -102.333 59.001 -141s85.667 -58 141 -58zM1000 150h800v250h-800v-250z" />
    <glyph glyph-name="trademark" unicode="&#x2122;" 
d="M150 1300h-150v100h500l100 -233l100 233h100v-700h-100v467l-100 -233l-100 233v-467h-100v600h-150v-600h-100v600z" />
  </font>
</defs>
</svg>
